999
dxflib 2.0.4.6
  0
SECTION
  2
HEADER
  9
$ACADVER
  1
AC1015
  9
$HANDSEED
  5
FFFF
  9
$LWDISPLAY
290
1
999
mm
999
0
  9
$EXTMIN
 10
-2.000000
 20
-2.000000
 30
0
  9
$EXTMAX
 10
2.000000
 20
2.000000
 30
0
  0
ENDSEC
  0
SECTION
  2
TABLES
  0
TABLE
  2
VPORT
  5
8
100
AcDbSymbolTable
 70
1
  0
VPORT
  5
30
100
AcDbSymbolTableRecord
100
AcDbViewportTableRecord
  2
*Active
 70
0
 10
0.0
 20
0.0
 11
1.0
 21
1.0
 12
286.30555555555549
 22
148.5
 13
0.0
 23
0.0
 14
10.0
 24
10.0
 15
10.0
 25
10.0
 16
0.0
 26
0.0
 36
1.0
 17
0.0
 27
0.0
 37
0.0
 40
297.0
 41
1.92798353909465
 42
50.0
 43
0.0
 44
0.0
 50
0.0
 51
0.0
 71
0
 72
100
 73
1
 74
3
 75
1
 76
1
 77
0
 78
0
281
0
 65
1
110
0.0
120
0.0
130
0.0
111
1.0
121
0.0
131
0.0
112
0.0
122
1.0
132
0.0
 79
0
146
0.0
  0
ENDTAB
  0
TABLE
  2
LTYPE
  5
5
100
AcDbSymbolTable
 70
9
  0
LTYPE
  5
14
100
AcDbSymbolTableRecord
100
AcDbLinetypeTableRecord
  2
BYBLOCK
 70
0
  3

 72
65
 73
0
 40
0.0
  0
LTYPE
  5
15
100
AcDbSymbolTableRecord
100
AcDbLinetypeTableRecord
  2
BYLAYER
 70
0
  3

 72
65
 73
0
 40
0.0
  0
LTYPE
  5
16
100
AcDbSymbolTableRecord
100
AcDbLinetypeTableRecord
  2
CONTINUOUS
 70
0
  3
Solid line
 72
65
 73
0
 40
0.0
  0
LTYPE
  5
31
100
AcDbSymbolTableRecord
100
AcDbLinetypeTableRecord
  2
BORDER
 70
0
  3
Border __ __ . __ __ . __ __ . __ __ . __ __ .
 72
65
 73
6
 40
44.450000000000003
 49
12.699999999999999
 74
0
 49
-6.3499999999999996
 74
0
 49
12.699999999999999
 74
0
 49
-6.3499999999999996
 74
0
 49
0.0
 74
0
 49
-6.3499999999999996
 74
0
  0
LTYPE
  5
32
100
AcDbSymbolTableRecord
100
AcDbLinetypeTableRecord
  2
CENTRE
 70
0
  0
LTYPE
  5
33
100
AcDbSymbolTableRecord
100
AcDbLinetypeTableRecord
  2
DASHDOT
 70
0
  3
Dash dot __ . __ . __ . __ . __ . __ . __ . __
 72
65
 73
4
 40
6.0
 49
2.0
 74
0
 49
-2.0
 74
0
 49
0.0
 74
0
 49
-2.0
 74
0
  0
LTYPE
  5
34
100
AcDbSymbolTableRecord
100
AcDbLinetypeTableRecord
  2
DASHED
 70
0
  3
Dashed __ __ __ __ __ __ __ __ __ __ __ __ __ _
 72
65
 73
2
 40
5.0
 49
3.5
 74
0
 49
-3.5
 74
0
  0
LTYPE
  5
35
100
AcDbSymbolTableRecord
100
AcDbLinetypeTableRecord
  2
DIVIDE
 70
0
  3
Divide ____ . . ____ . . ____ . . ____ . . ____
 72
65
 73
6
 40
31.75
 49
12.699999999999999
 74
0
 49
-6.3499999999999996
 74
0
 49
0.0
 74
0
 49
-6.3499999999999996
 74
0
 49
0.0
 74
0
 49
-6.3499999999999996
 74
0
  0
LTYPE
  5
36
100
AcDbSymbolTableRecord
100
AcDbLinetypeTableRecord
  2
DOT
 70
0
  3
Dot . . . . . . . . . . . . . . . . . . . . . .
 72
65
 73
2
 40
1.0
 49
0.1
 74
0
 49
-1.0
 74
0
  0
ENDTAB
  0
TABLE
  2
LAYER
  5
2
100
AcDbSymbolTable
 70
2
  0
LAYER
  5
10
100
AcDbSymbolTableRecord
100
AcDbLayerTableRecord
  2
0
 70
0
 62
250
  6
CONTINUOUS
370
100
390
F
  0
LAYER
  5
37
100
AcDbSymbolTableRecord
100
AcDbLayerTableRecord
  2
KISS
 70
0
 62
250
  6
CONTINUOUS
370
100
390
F
  0
ENDTAB
  0
TABLE
  2
STYLE
  5
3
100
AcDbSymbolTable
 70
1
  0
STYLE
  5
11
100
AcDbSymbolTableRecord
100
AcDbTextStyleTableRecord
  2
Standard
 70
0
 40
0.0
 41
1.0
 50
0.0
 71
0
 42
2.5
  3
txt
  4

  0
ENDTAB
  0
TABLE
  2
VIEW
  5
6
100
AcDbSymbolTable
 70
0
  0
ENDTAB
  0
TABLE
  2
UCS
  5
7
100
AcDbSymbolTable
 70
0
  0
ENDTAB
  0
TABLE
  2
APPID
  5
9
100
AcDbSymbolTable
 70
1
  0
APPID
  5
12
100
AcDbSymbolTableRecord
100
AcDbRegAppTableRecord
  2
ACAD
 70
0
  0
ENDTAB
  0
TABLE
  2
DIMSTYLE
  5
A
100
AcDbSymbolTable
 70
1
100
AcDbDimStyleTable
 71
0
  0
DIMSTYLE
105
27
100
AcDbSymbolTableRecord
100
AcDbDimStyleTableRecord
  2
Standard
 41
0.0
 42
0.0
 43
3.75
 44
0.0
 70
0
 73
0
 74
0
 77
1
 78
8
140
0.0
141
2.5
143
0.03937007874016
147
0.0
171
3
172
1
271
2
272
2
274
3
278
44
283
0
284
8
340
11
  0
ENDTAB
  0
TABLE
  2
BLOCK_RECORD
  5
1
100
AcDbSymbolTable
 70
1
  0
BLOCK_RECORD
  5
1F
100
AcDbSymbolTableRecord
100
AcDbBlockTableRecord
  2
*Model_Space
340
22
  0
BLOCK_RECORD
  5
1B
100
AcDbSymbolTableRecord
100
AcDbBlockTableRecord
  2
*Paper_Space
340
1E
  0
BLOCK_RECORD
  5
23
100
AcDbSymbolTableRecord
100
AcDbBlockTableRecord
  2
*Paper_Space0
340
26
  0
ENDTAB
  0
ENDSEC
  0
SECTION
  2
BLOCKS
  0
BLOCK
  5
20
100
AcDbEntity
  8
0
100
AcDbBlockBegin
  2
*Model_Space
 70
0
 10
0.0
 20
0.0
 30
0.0
  3
*Model_Space
  1

  0
ENDBLK
  5
21
100
AcDbEntity
  8
0
100
AcDbBlockEnd
  0
BLOCK
  5
1C
100
AcDbEntity
 67
1
  8
0
100
AcDbBlockBegin
  2
*Paper_Space
 70
0
 10
0.0
 20
0.0
 30
0.0
  3
*Paper_Space
  1

  0
ENDBLK
  5
1D
100
AcDbEntity
 67
1
  8
0
100
AcDbBlockEnd
  0
BLOCK
  5
24
100
AcDbEntity
  8
0
100
AcDbBlockBegin
  2
*Paper_Space0
 70
0
 10
0.0
 20
0.0
 30
0.0
  3
*Paper_Space0
  1

  0
ENDBLK
  5
25
100
AcDbEntity
  8
0
100
AcDbBlockEnd
  0
ENDSEC
  0
SECTION
  2
ENTITIES
  0
LWPOLYLINE
  5
38
  8
KISS
 62
5
370
0
  6
CONTINUOUS
100
AcDbEntity
100
AcDbPolyline
 90
3
 70
0
 10
0.0000000000000102
 20
-164.9975
 10
-2.5624187372470129
 20
-164.9776015599239
 10
-5.1242194271212815
 20
-164.91791103913701
  0
LWPOLYLINE
  5
39
  8
KISS
 62
5
370
0
  6
CONTINUOUS
100
AcDbEntity
100
AcDbPolyline
 90
15
 70
0
 10
-5.1242194271213188
 20
-164.91791103913701
 10
-6.2254603945861007
 20
-162.91179049120231
 10
-7.2685762884877931
 20
-160.87895914468501
 10
-8.2034928969729091
 20
-158.9211439064542
 10
-9.0708452889753595
 20
-156.95936172705581
 10
-9.8624802728601537
 20
-155.0100572192471
 10
-10.571533249646986
 20
-153.09114312991264
 10
-11.192687108207078
 20
-151.22198017783992
 10
-11.722444961003788
 20
-149.42332900211065
 10
-12.159414888524989
 20
-147.71727052266155
 10
-12.514727306605232
 20
-146.07553318278431
 10
-12.789168312266808
 20
-144.4990670478104
 10
-12.973912403831669
 20
-143.06099855782847
 10
-13.074952264452156
 20
-141.76346112765262
 10
-13.087282362926373
 20
-140.50988342980921
  0
LWPOLYLINE
  5
3A
  8
KISS
 62
5
370
0
  6
CONTINUOUS
100
AcDbEntity
100
AcDbPolyline
 90
15
 70
0
 10
-13.08728236292634
 20
-140.50988342980921
 10
-13.073114230243181
 20
-139.02606489097255
 10
-13.16369486809044
 20
-137.66137217517681
 10
-13.358101303475211
 20
-136.38335645921853
 10
-13.650725169184073
 20
-135.2164680968101
 10
-14.023833718280182
 20
-134.1884440220847
 10
-14.475123993574046
 20
-133.26939812054007
 10
-15.007699260380805
 20
-132.44046690516547
 10
-15.610583690797254
 20
-131.71128376749627
 10
-16.287056150928141
 20
-131.0732845105826
 10
-17.020753252559185
 20
-130.53901034209019
 10
-17.809781770554849
 20
-130.10707524728102
 10
-18.650735269605107
 20
-129.78079092201503
 10
-19.51780120857449
 20
-129.57012529566427
 10
-19.664338176142802
 20
-129.54623726477027
  0
LWPOLYLINE
  5
3B
  8
KISS
 62
5
370
0
  6
CONTINUOUS
100
AcDbEntity
100
AcDbPolyline
 90
3
 70
0
 10
-19.664338176142802
 20
-129.54623726477027
 10
-20.081092813644513
 20
-129.48229028239982
 10
-20.497639523661821
 20
-129.41700258978292
  0
LWPOLYLINE
  5
3C
  8
KISS
 62
5
370
0
  6
CONTINUOUS
100
AcDbEntity
100
AcDbPolyline
 90
3
 70
0
 10
-20.49763952366186
 20
-129.41700258978298
 10
-20.913973993107248
 20
-129.35037486293379
 10
-21.330091911090971
 20
-129.28240779174203
  0
LWPOLYLINE
  5
3D
  8
KISS
 62
5
370
0
  6
CONTINUOUS
100
AcDbEntity
100
AcDbPolyline
 90
15
 70
0
 10
-21.330091911090939
 20
-129.282407791742
 10
-21.476838656483316
 20
-129.25984424590246
 10
-22.366566626470746
 20
-129.1922610522175
 10
-23.267188333149065
 20
-129.24270696324112
 10
-24.151074331494531
 20
-129.40967842866877
 10
-25.013961538707299
 20
-129.69107848497404
 10
-25.854477692793907
 20
-130.08881034924616
 10
-26.653184840465787
 20
-130.59600318925627
 10
-27.415847851098619
 20
-131.21978881497165
 10
-28.129051210345416
 20
-131.95439704394809
 10
-28.801575436965432
 20
-132.81680915670674
 10
-29.440465605793882
 20
-133.83616019010051
 10
-30.02028568828565
 20
-134.99155047234049
 10
-30.528146235441039
 20
-136.26145941598244
 10
-30.973196685598118
 20
-137.67703290012022
  0
LWPOLYLINE
  5
3E
  8
KISS
 62
5
370
0
  6
CONTINUOUS
100
AcDbEntity
100
AcDbPolyline
 90
15
 70
0
 10
-30.973196685598094
 20
-137.67703290012025
 10
-31.372300118501588
 20
-138.86544592836563
 10
-31.869355853112193
 20
-140.06825432243025
 10
-32.489445527721522
 20
-141.37884966680241
 10
-33.237609261258086
 20
-142.79335112248521
 10
-34.082856190115884
 20
-144.2449385421213
 10
-35.025640350657184
 20
-145.7324654425471
 10
-36.085283788870854
 20
-147.27938018434861
 10
-37.253639331122812
 20
-148.86511269151822
 10
-38.520965849444288
 20
-150.47099902065102
 10
-39.876223679519711
 20
-152.08026911168389
 10
-41.307348856553851
 20
-153.67800820771191
 10
-42.801505569705746
 20
-155.251096027388
 10
-44.421747170623952
 20
-156.86209298770407
 10
-46.08901491081911
 20
-158.42972483344246
  0
LWPOLYLINE
  5
3F
  8
KISS
 62
5
370
0
  6
CONTINUOUS
100
AcDbEntity
100
AcDbPolyline
 90
3
 70
0
 10
-46.089014910819152
 20
-158.42972483344244
 10
-48.543877535699728
 20
-157.69485394282523
 10
-50.987031529380381
 20
-156.92194754740962
  0
LWPOLYLINE
  5
40
  8
KISS
 62
5
370
0
  6
CONTINUOUS
100
AcDbEntity
100
AcDbPolyline
 90
3
 70
0
 10
50.987031529380396
 20
-156.92194754740959
 10
48.543877535699743
 20
-157.69485394282523
 10
46.089014910819159
 20
-158.42972483344244
  0
LWPOLYLINE
  5
41
  8
KISS
 62
5
370
0
  6
CONTINUOUS
100
AcDbEntity
100
AcDbPolyline
 90
15
 70
0
 10
46.089014910819131
 20
-158.42972483344244
 10
44.421747170623959
 20
-156.86209298770407
 10
42.80150556970576
 20
-155.25109602738797
 10
41.307348856553872
 20
-153.67800820771191
 10
39.876223679519725
 20
-152.08026911168386
 10
38.520965849444295
 20
-150.47099902065105
 10
37.253639331122834
 20
-148.86511269151816
 10
36.085283788870868
 20
-147.27938018434858
 10
35.025640350657198
 20
-145.7324654425471
 10
34.082856190115891
 20
-144.24493854212128
 10
33.2376092612581
 20
-142.79335112248518
 10
32.489445527721536
 20
-141.37884966680241
 10
31.869355853112207
 20
-140.06825432243025
 10
31.372300118501606
 20
-138.86544592836566
 10
30.973196685598097
 20
-137.67703290012025
  0
LWPOLYLINE
  5
42
  8
KISS
 62
5
370
0
  6
CONTINUOUS
100
AcDbEntity
100
AcDbPolyline
 90
15
 70
0
 10
30.973196685598133
 20
-137.67703290012022
 10
30.52814623544106
 20
-136.26145941598242
 10
30.020285688285668
 20
-134.99155047234046
 10
29.440465605793896
 20
-133.83616019010049
 10
28.801575436965447
 20
-132.81680915670671
 10
28.12905121034543
 20
-131.95439704394809
 10
27.415847851098633
 20
-131.21978881497168
 10
26.653184840465805
 20
-130.59600318925624
 10
25.854477692793914
 20
-130.08881034924616
 10
25.01396153870731
 20
-129.69107848497401
 10
24.151074331494542
 20
-129.40967842866877
 10
23.267188333149072
 20
-129.24270696324106
 10
22.366566626470757
 20
-129.1922610522175
 10
21.47683865648332
 20
-129.25984424590243
 10
21.33009191109095
 20
-129.282407791742
  0
LWPOLYLINE
  5
43
  8
KISS
 62
5
370
0
  6
CONTINUOUS
100
AcDbEntity
100
AcDbPolyline
 90
3
 70
0
 10
21.33009191109095
 20
-129.282407791742
 10
20.913973993107259
 20
-129.35037486293376
 10
20.497639523661839
 20
-129.41700258978292
  0
LWPOLYLINE
  5
44
  8
KISS
 62
5
370
0
  6
CONTINUOUS
100
AcDbEntity
100
AcDbPolyline
 90
3
 70
0
 10
20.497639523661821
 20
-129.41700258978298
 10
20.081092813644528
 20
-129.48229028239984
 10
19.664338176142788
 20
-129.5462372647703
  0
LWPOLYLINE
  5
45
  8
KISS
 62
5
370
0
  6
CONTINUOUS
100
AcDbEntity
100
AcDbPolyline
 90
15
 70
0
 10
19.664338176142813
 20
-129.54623726477027
 10
19.517801208574507
 20
-129.5701252956643
 10
18.650735269605118
 20
-129.78079092201503
 10
17.809781770554871
 20
-130.10707524728105
 10
17.020753252559199
 20
-130.53901034209019
 10
16.287056150928166
 20
-131.07328451058262
 10
15.610583690797267
 20
-131.71128376749627
 10
15.007699260380821
 20
-132.44046690516549
 10
14.475123993574055
 20
-133.26939812054005
 10
14.023833718280198
 20
-134.1884440220847
 10
13.650725169184099
 20
-135.21646809681013
 10
13.358101303475234
 20
-136.38335645921856
 10
13.163694868090463
 20
-137.66137217517681
 10
13.07311423024321
 20
-139.02606489097255
 10
13.087282362926356
 20
-140.50988342980921
  0
LWPOLYLINE
  5
46
  8
KISS
 62
5
370
0
  6
CONTINUOUS
100
AcDbEntity
100
AcDbPolyline
 90
15
 70
0
 10
13.087282362926388
 20
-140.50988342980924
 10
13.074952264452172
 20
-141.76346112765262
 10
12.97391240383169
 20
-143.06099855782847
 10
12.789168312266831
 20
-144.4990670478104
 10
12.514727306605252
 20
-146.07553318278434
 10
12.159414888525014
 20
-147.71727052266161
 10
11.722444961003809
 20
-149.42332900211068
 10
11.192687108207096
 20
-151.22198017783995
 10
10.571533249647018
 20
-153.09114312991269
 10
9.8624802728601608
 20
-155.0100572192471
 10
9.0708452889753772
 20
-156.95936172705581
 10
8.2034928969729251
 20
-158.9211439064542
 10
7.2685762884878145
 20
-160.87895914468504
 10
6.2254603945861149
 20
-162.91179049120231
 10
5.1242194271213393
 20
-164.91791103913701
  0
LWPOLYLINE
  5
47
  8
KISS
 62
5
370
0
  6
CONTINUOUS
100
AcDbEntity
100
AcDbPolyline
 90
3
 70
0
 10
5.1242194271212966
 20
-164.91791103913701
 10
2.5624187372470288
 20
-164.9776015599239
 10
0.0000000000000071
 20
-164.99750000000003
  0
LWPOLYLINE
  5
48
  8
KISS
 62
5
370
0
  6
CONTINUOUS
100
AcDbEntity
100
AcDbPolyline
 90
3
 70
0
 10
96.983097165127347
 20
-133.48578152938038
 10
94.898360850369357
 20
-134.97583529714899
 10
92.790735348239423
 20
-136.43333331625004
  0
LWPOLYLINE
  5
49
  8
KISS
 62
5
370
0
  6
CONTINUOUS
100
AcDbEntity
100
AcDbPolyline
 90
15
 70
0
 10
92.790735348239394
 20
-136.43333331625007
 10
90.720644618261545
 20
-135.45764090010223
 10
88.68187784711175
 20
-134.42617393293892
 10
86.774739498778359
 20
-133.3917983279548
 10
84.919930040276057
 20
-132.31450015011922
 10
83.133711443054324
 20
-131.20279104481656
 10
81.432166132794592
 20
-130.06712781864883
 10
79.830975687738089
 20
-128.92004830263213
 10
78.345171946809799
 20
-127.77629278767471
 10
76.988859835645655
 20
-126.65290696349518
 10
75.736417054588571
 20
-125.53356095453853
 10
74.587766072178809
 20
-124.41948543604023
 10
73.593029512294606
 20
-123.36465344103972
 10
72.748613182188507
 20
-122.37431334915627
 10
72.001803439585444
 20
-121.367395137874
  0
LWPOLYLINE
  5
4A
  8
KISS
 62
5
370
0
  6
CONTINUOUS
100
AcDbEntity
100
AcDbPolyline
 90
15
 70
0
 10
72.001803439585473
 20
-121.36739513787397
 10
71.141099045498351
 20
-120.15863290394283
 10
70.265671517862899
 20
-119.10781526783424
 10
69.357194617782483
 20
-118.18814807021563
 10
68.434577166968921
 20
-117.41611554722134
 10
67.528468619878382
 20
-116.80373430280486
 10
66.623165490661734
 20
-116.32547231816535
 10
65.705069505469226
 20
-115.96789276532415
 10
64.788722661075951
 20
-115.73233779197366
 10
63.866438390416022
 20
-115.61380608637886
 10
62.958826489552209
 20
-115.61282554040142
 10
62.066603930770853
 20
-115.72716203474988
 10
61.194473144114568
 20
-115.95749253521703
 10
60.369175915910731
 20
-116.29670903505995
 10
60.236583986577998
 20
-116.36351548055686
  0
LWPOLYLINE
  5
4B
  8
KISS
 62
5
370
0
  6
CONTINUOUS
100
AcDbEntity
100
AcDbPolyline
 90
3
 70
0
 10
60.236583986577998
 20
-116.36351548055686
 10
59.861835309188578
 20
-116.55674351482817
 10
59.486466798957196
 20
-116.7487646750167
  0
LWPOLYLINE
  5
4C
  8
KISS
 62
5
370
0
  6
CONTINUOUS
100
AcDbEntity
100
AcDbPolyline
 90
3
 70
0
 10
59.486466798957196
 20
-116.74876467501677
 10
59.110482342596072
 20
-116.93957697286021
 10
58.733885833195302
 20
-117.12917843261367
  0
LWPOLYLINE
  5
4D
  8
KISS
 62
5
370
0
  6
CONTINUOUS
100
AcDbEntity
100
AcDbPolyline
 90
15
 70
0
 10
58.733885833195309
 20
-117.12917843261363
 10
58.601902702819743
 20
-117.19717971333964
 10
57.842373250178355
 20
-117.66547274042512
 10
57.143406346510758
 20
-118.23565649681993
 10
56.526470917691249
 20
-118.89027440446186
 10
55.993783305917901
 20
-119.6251242070224
 10
55.547572377401096
 20
-120.44093904410866
 10
55.199525192832077
 20
-121.32073495340427
 10
54.949169847636497
 20
-122.27367019557377
 10
54.803968092765572
 20
-123.28719115347411
 10
54.76679768557905
 20
-124.38019703106731
 10
54.849084185795697
 20
-125.58039955938855
 10
55.059121253922669
 20
-126.85593962632802
 10
55.394687189328458
 20
-128.18183048288222
 10
55.866687029309631
 20
-129.58864757946469
  0
LWPOLYLINE
  5
4E
  8
KISS
 62
5
370
0
  6
CONTINUOUS
100
AcDbEntity
100
AcDbPolyline
 90
15
 70
0
 10
55.866687029309659
 20
-129.58864757946469
 10
56.242337221212217
 20
-130.7846810276518
 10
56.547203720125495
 20
-132.04993548979843
 10
56.815889250475252
 20
-133.47470896197837
 10
57.042035170465745
 20
-135.05882428706673
 10
57.211437718251929
 20
-136.73000685770134
 10
57.323055684805119
 20
-138.48759602539681
 10
57.375039807097103
 20
-140.36191912603385
 10
57.36189049973818
 20
-142.33154583003673
 10
57.280518110116432
 20
-144.3756509986481
 10
57.129996720290187
 20
-146.47417841640524
 10
56.911319608648085
 20
-148.60797077091431
 10
56.627159256415325
 20
-150.75886883128098
 10
56.263276521041007
 20
-153.01454686823351
 10
55.835859464999061
 20
-155.26278306166898
  0
LWPOLYLINE
  5
4F
  8
KISS
 62
5
370
0
  6
CONTINUOUS
100
AcDbEntity
100
AcDbPolyline
 90
3
 70
0
 10
55.835859464999018
 20
-155.26278306166898
 10
53.417887610770912
 20
-156.111192069797
 10
50.98703152938041
 20
-156.92194754740962
  0
LWPOLYLINE
  5
50
  8
KISS
 62
5
370
0
  6
CONTINUOUS
100
AcDbEntity
100
AcDbPolyline
 90
3
 70
0
 10
133.4857815293804
 20
-96.983097165127333
 10
131.96353140924555
 20
-99.044441460644592
 10
130.40945209870512
 20
-101.08189654713415
  0
LWPOLYLINE
  5
51
  8
KISS
 62
5
370
0
  6
CONTINUOUS
100
AcDbEntity
100
AcDbPolyline
 90
15
 70
0
 10
130.40945209870509
 20
-101.08189654713419
 10
128.13917328276503
 20
-100.7936511323182
 10
125.88145003786713
 20
-100.44268133170657
 10
123.74801404370133
 20
-100.04826983254887
 10
121.65108197674647
 20
-99.596866024530044
 10
119.60875013399126
 20
-99.091539737917387
 10
117.63954514212477
 20
-98.537266243923042
 10
115.76225547117572
 20
-97.941123854259928
 10
113.99573224989823
 20
-97.312486324963857
 10
112.35865746753414
 20
-96.663206408590597
 10
110.82161665996961
 20
-95.985671196612245
 10
109.38491638996692
 20
-95.281075089269635
 10
108.11290469002643
 20
-94.585260748758088
 10
107.00378511821016
 20
-93.904330347354488
 10
105.98237200684297
 20
-93.177471123167351
  0
LWPOLYLINE
  5
52
  8
KISS
 62
5
370
0
  6
CONTINUOUS
100
AcDbEntity
100
AcDbPolyline
 90
15
 70
0
 10
105.98237200684298
 20
-93.177471123167322
 10
104.7902654117992
 20
-92.293842208841738
 10
103.63296384955089
 20
-91.564977231965784
 10
102.48475818059245
 20
-90.971056551969639
 10
101.36872567213321
 20
-90.52191446179242
 10
100.31772902239084
 20
-90.219508228632534
 10
99.308943501109837
 20
-90.044408103633657
 10
98.325284173139153
 20
-89.988037001702025
 10
97.380996045717595
 20
-90.047177657010678
 10
96.467223268828903
 20
-90.219448819295792
 10
95.603730050874546
 20
-90.49898376631829
 10
94.790507892190931
 20
-90.883436167746865
 10
94.032238263447098
 20
-91.371996725512048
 10
93.352157619907359
 20
-91.949641657048019
 10
93.246699528499633
 20
-92.054151521849164
  0
LWPOLYLINE
  5
53
  8
KISS
 62
5
370
0
  6
CONTINUOUS
100
AcDbEntity
100
AcDbPolyline
 90
3
 70
0
 10
93.246699528499633
 20
-92.054151521849164
 10
92.950003103274952
 20
-92.353726012906648
 10
92.652344237385236
 20
-92.652344237385222
  0
LWPOLYLINE
  5
54
  8
KISS
 62
5
370
0
  6
CONTINUOUS
100
AcDbEntity
100
AcDbPolyline
 90
3
 70
0
 10
92.65234423738525
 20
-92.652344237385279
 10
92.353726012906677
 20
-92.950003103274952
 10
92.054151521849178
 20
-93.246699528499676
  0
LWPOLYLINE
  5
55
  8
KISS
 62
5
370
0
  6
CONTINUOUS
100
AcDbEntity
100
AcDbPolyline
 90
15
 70
0
 10
92.054151521849164
 20
-93.246699528499647
 10
91.949641657048062
 20
-93.352157619907373
 10
91.371996725512076
 20
-94.032238263447084
 10
90.883436167746908
 20
-94.790507892190945
 10
90.49898376631829
 20
-95.603730050874532
 10
90.21944881929582
 20
-96.467223268828903
 10
90.047177657010693
 20
-97.380996045717595
 10
89.988037001702054
 20
-98.325284173139167
 10
90.044408103633643
 20
-99.308943501109823
 10
90.219508228632549
 20
-100.31772902239082
 10
90.521914461792448
 20
-101.36872567213322
 10
90.971056551969667
 20
-102.48475818059246
 10
91.564977231965813
 20
-103.63296384955088
 10
92.293842208841767
 20
-104.79026541179921
 10
93.177471123167322
 20
-105.98237200684295
  0
LWPOLYLINE
  5
56
  8
KISS
 62
5
370
0
  6
CONTINUOUS
100
AcDbEntity
100
AcDbPolyline
 90
15
 70
0
 10
93.177471123167365
 20
-105.98237200684297
 10
93.904330347354488
 20
-107.00378511821015
 10
94.585260748758088
 20
-108.11290469002643
 10
95.281075089269663
 20
-109.38491638996692
 10
95.985671196612273
 20
-110.82161665996961
 10
96.663206408590639
 20
-112.35865746753417
 10
97.312486324963885
 20
-113.99573224989823
 10
97.941123854259956
 20
-115.76225547117573
 10
98.537266243923085
 20
-117.63954514212479
 10
99.091539737917387
 20
-119.60875013399126
 10
99.596866024530058
 20
-121.65108197674647
 10
100.04826983254888
 20
-123.74801404370132
 10
100.44268133170658
 20
-125.88145003786715
 10
100.79365113231822
 20
-128.13917328276503
 10
101.08189654713422
 20
-130.40945209870509
  0
LWPOLYLINE
  5
57
  8
KISS
 62
5
370
0
  6
CONTINUOUS
100
AcDbEntity
100
AcDbPolyline
 90
3
 70
0
 10
101.08189654713416
 20
-130.40945209870512
 10
99.044441460644606
 20
-131.96353140924555
 10
96.983097165127347
 20
-133.4857815293804
  0
LWPOLYLINE
  5
58
  8
KISS
 62
5
370
0
  6
CONTINUOUS
100
AcDbEntity
100
AcDbPolyline
 90
3
 70
0
 10
156.92194754740962
 20
-50.987031529380381
 10
156.111192069797
 20
-53.417887610770897
 10
155.26278306166898
 20
-55.835859464999004
  0
LWPOLYLINE
  5
59
  8
KISS
 62
5
370
0
  6
CONTINUOUS
100
AcDbEntity
100
AcDbPolyline
 90
15
 70
0
 10
155.26278306166896
 20
-55.835859464999032
 10
153.01454686823354
 20
-56.263276521040993
 10
150.75886883128098
 20
-56.62715925641529
 10
148.60797077091431
 20
-56.911319608648071
 10
146.47417841640527
 20
-57.129996720290166
 10
144.37565099864813
 20
-57.280518110116418
 10
142.33154583003673
 20
-57.361890499738138
 10
140.36191912603383
 20
-57.375039807097082
 10
138.48759602539678
 20
-57.323055684805091
 10
136.73000685770128
 20
-57.211437718251901
 10
135.05882428706673
 20
-57.042035170465709
 10
133.47470896197837
 20
-56.815889250475223
 10
132.04993548979843
 20
-56.547203720125481
 10
130.7846810276518
 20
-56.24233722121221
 10
129.58864757946469
 20
-55.866687029309638
  0
LWPOLYLINE
  5
5A
  8
KISS
 62
5
370
0
  6
CONTINUOUS
100
AcDbEntity
100
AcDbPolyline
 90
15
 70
0
 10
129.58864757946472
 20
-55.866687029309603
 10
128.18183048288222
 20
-55.394687189328423
 10
126.85593962632802
 20
-55.059121253922648
 10
125.58039955938852
 20
-54.849084185795668
 10
124.38019703106728
 20
-54.766797685579007
 10
123.28719115347411
 20
-54.803968092765558
 10
122.2736701955738
 20
-54.94916984763649
 10
121.32073495340425
 20
-55.199525192832049
 10
120.44093904410867
 20
-55.547572377401082
 10
119.62512420702238
 20
-55.993783305917866
 10
118.89027440446189
 20
-56.526470917691235
 10
118.2356564968199
 20
-57.14340634651073
 10
117.66547274042512
 20
-57.842373250178333
 10
117.19717971333961
 20
-58.601902702819714
 10
117.12917843261364
 20
-58.733885833195288
  0
LWPOLYLINE
  5
5B
  8
KISS
 62
5
370
0
  6
CONTINUOUS
100
AcDbEntity
100
AcDbPolyline
 90
3
 70
0
 10
117.12917843261364
 20
-58.733885833195288
 10
116.93957697286021
 20
-59.110482342596057
 10
116.74876467501672
 20
-59.486466798957167
  0
LWPOLYLINE
  5
5C
  8
KISS
 62
5
370
0
  6
CONTINUOUS
100
AcDbEntity
100
AcDbPolyline
 90
3
 70
0
 10
116.74876467501676
 20
-59.486466798957224
 10
116.55674351482821
 20
-59.861835309188578
 10
116.3635154805569
 20
-60.236583986578026
  0
LWPOLYLINE
  5
5D
  8
KISS
 62
5
370
0
  6
CONTINUOUS
100
AcDbEntity
100
AcDbPolyline
 90
15
 70
0
 10
116.36351548055687
 20
-60.236583986577983
 10
116.29670903505999
 20
-60.369175915910731
 10
115.95749253521704
 20
-61.194473144114554
 10
115.72716203474992
 20
-62.066603930770853
 10
115.61282554040142
 20
-62.958826489552195
 10
115.6138060863789
 20
-63.866438390416022
 10
115.73233779197368
 20
-64.788722661075937
 10
115.96789276532419
 20
-65.705069505469211
 10
116.32547231816535
 20
-66.623165490661719
 10
116.80373430280487
 20
-67.528468619878382
 10
117.41611554722139
 20
-68.434577166968936
 10
118.18814807021568
 20
-69.357194617782483
 10
119.10781526783427
 20
-70.265671517862899
 10
120.15863290394287
 20
-71.141099045498351
 10
121.36739513787397
 20
-72.001803439585458
  0
LWPOLYLINE
  5
5E
  8
KISS
 62
5
370
0
  6
CONTINUOUS
100
AcDbEntity
100
AcDbPolyline
 90
15
 70
0
 10
121.367395137874
 20
-72.001803439585444
 10
122.37431334915627
 20
-72.748613182188492
 10
123.36465344103974
 20
-73.593029512294578
 10
124.41948543604028
 20
-74.587766072178809
 10
125.53356095453854
 20
-75.736417054588557
 10
126.65290696349525
 20
-76.988859835645655
 10
127.77629278767473
 20
-78.345171946809785
 10
128.92004830263218
 20
-79.830975687738103
 10
130.06712781864888
 20
-81.432166132794592
 10
131.20279104481656
 20
-83.13371144305431
 10
132.31450015011924
 20
-84.919930040276043
 10
133.39179832795483
 20
-86.774739498778345
 10
134.42617393293898
 20
-88.68187784711175
 10
135.45764090010223
 20
-90.720644618261559
 10
136.43333331625013
 20
-92.790735348239366
  0
LWPOLYLINE
  5
5F
  8
KISS
 62
5
370
0
  6
CONTINUOUS
100
AcDbEntity
100
AcDbPolyline
 90
3
 70
0
 10
136.43333331625007
 20
-92.790735348239409
 10
134.97583529714896
 20
-94.898360850369329
 10
133.48578152938043
 20
-96.983097165127347
  0
LWPOLYLINE
  5
60
  8
KISS
 62
5
370
0
  6
CONTINUOUS
100
AcDbEntity
100
AcDbPolyline
 90
3
 70
0
 10
164.9975
 20
0.0
 10
164.9776015599239
 20
-2.5624187372470226
 10
164.91791103913701
 20
-5.1242194271212922
  0
LWPOLYLINE
  5
61
  8
KISS
 62
5
370
0
  6
CONTINUOUS
100
AcDbEntity
100
AcDbPolyline
 90
15
 70
0
 10
164.91791103913701
 20
-5.1242194271213295
 10
162.91179049120231
 20
-6.2254603945861104
 10
160.87895914468501
 20
-7.2685762884878029
 10
158.9211439064542
 20
-8.2034928969729197
 10
156.95936172705581
 20
-9.0708452889753701
 10
155.0100572192471
 20
-9.8624802728601644
 10
153.09114312991264
 20
-10.571533249646997
 10
151.22198017783992
 20
-11.192687108207087
 10
149.42332900211065
 20
-11.722444961003797
 10
147.71727052266155
 20
-12.159414888524998
 10
146.07553318278431
 20
-12.514727306605241
 10
144.4990670478104
 20
-12.789168312266817
 10
143.06099855782847
 20
-12.973912403831678
 10
141.76346112765262
 20
-13.074952264452165
 10
140.50988342980921
 20
-13.087282362926382
  0
LWPOLYLINE
  5
62
  8
KISS
 62
5
370
0
  6
CONTINUOUS
100
AcDbEntity
100
AcDbPolyline
 90
15
 70
0
 10
140.50988342980921
 20
-13.087282362926349
 10
139.02606489097255
 20
-13.07311423024319
 10
137.66137217517681
 20
-13.163694868090447
 10
136.38335645921853
 20
-13.358101303475218
 10
135.2164680968101
 20
-13.65072516918408
 10
134.1884440220847
 20
-14.023833718280189
 10
133.26939812054007
 20
-14.475123993574053
 10
132.44046690516547
 20
-15.007699260380813
 10
131.71128376749627
 20
-15.610583690797261
 10
131.0732845105826
 20
-16.287056150928152
 10
130.53901034209019
 20
-17.020753252559192
 10
130.10707524728102
 20
-17.809781770554856
 10
129.78079092201503
 20
-18.650735269605114
 10
129.57012529566427
 20
-19.517801208574497
 10
129.54623726477027
 20
-19.66433817614281
  0
LWPOLYLINE
  5
63
  8
KISS
 62
5
370
0
  6
CONTINUOUS
100
AcDbEntity
100
AcDbPolyline
 90
3
 70
0
 10
129.54623726477027
 20
-19.66433817614281
 10
129.48229028239982
 20
-20.081092813644521
 10
129.41700258978292
 20
-20.497639523661828
  0
LWPOLYLINE
  5
64
  8
KISS
 62
5
370
0
  6
CONTINUOUS
100
AcDbEntity
100
AcDbPolyline
 90
3
 70
0
 10
129.41700258978298
 20
-20.497639523661867
 10
129.35037486293379
 20
-20.913973993107255
 10
129.28240779174203
 20
-21.330091911090978
  0
LWPOLYLINE
  5
65
  8
KISS
 62
5
370
0
  6
CONTINUOUS
100
AcDbEntity
100
AcDbPolyline
 90
15
 70
0
 10
129.282407791742
 20
-21.330091911090946
 10
129.25984424590246
 20
-21.476838656483324
 10
129.1922610522175
 20
-22.366566626470753
 10
129.24270696324112
 20
-23.267188333149072
 10
129.40967842866877
 20
-24.151074331494538
 10
129.69107848497404
 20
-25.013961538707306
 10
130.08881034924616
 20
-25.854477692793914
 10
130.59600318925627
 20
-26.653184840465798
 10
131.21978881497165
 20
-27.415847851098629
 10
131.95439704394809
 20
-28.129051210345427
 10
132.81680915670674
 20
-28.801575436965443
 10
133.83616019010051
 20
-29.440465605793893
 10
134.99155047234049
 20
-30.020285688285661
 10
136.26145941598244
 20
-30.528146235441049
 10
137.67703290012022
 20
-30.973196685598129
  0
LWPOLYLINE
  5
66
  8
KISS
 62
5
370
0
  6
CONTINUOUS
100
AcDbEntity
100
AcDbPolyline
 90
15
 70
0
 10
137.67703290012025
 20
-30.973196685598104
 10
138.86544592836563
 20
-31.372300118501599
 10
140.06825432243025
 20
-31.869355853112204
 10
141.37884966680241
 20
-32.489445527721529
 10
142.79335112248521
 20
-33.237609261258093
 10
144.2449385421213
 20
-34.082856190115891
 10
145.7324654425471
 20
-35.025640350657198
 10
147.27938018434861
 20
-36.085283788870868
 10
148.86511269151822
 20
-37.253639331122827
 10
150.47099902065102
 20
-38.520965849444302
 10
152.08026911168389
 20
-39.876223679519725
 10
153.67800820771191
 20
-41.307348856553865
 10
155.251096027388
 20
-42.80150556970576
 10
156.86209298770407
 20
-44.421747170623966
 10
158.42972483344246
 20
-46.089014910819124
  0
LWPOLYLINE
  5
67
  8
KISS
 62
5
370
0
  6
CONTINUOUS
100
AcDbEntity
100
AcDbPolyline
 90
3
 70
0
 10
158.42972483344244
 20
-46.089014910819166
 10
157.69485394282523
 20
-48.543877535699743
 10
156.92194754740962
 20
-50.987031529380396
  0
LWPOLYLINE
  5
68
  8
KISS
 62
5
370
0
  6
CONTINUOUS
100
AcDbEntity
100
AcDbPolyline
 90
3
 70
0
 10
156.92194754740959
 20
50.987031529380388
 10
157.69485394282523
 20
48.543877535699735
 10
158.42972483344241
 20
46.089014910819159
  0
LWPOLYLINE
  5
69
  8
KISS
 62
5
370
0
  6
CONTINUOUS
100
AcDbEntity
100
AcDbPolyline
 90
15
 70
0
 10
158.42972483344244
 20
46.089014910819117
 10
156.86209298770407
 20
44.421747170623959
 10
155.25109602738797
 20
42.801505569705753
 10
153.67800820771191
 20
41.307348856553858
 10
152.08026911168386
 20
39.876223679519718
 10
150.47099902065105
 20
38.520965849444295
 10
148.86511269151816
 20
37.253639331122827
 10
147.27938018434858
 20
36.085283788870854
 10
145.7324654425471
 20
35.025640350657191
 10
144.24493854212128
 20
34.082856190115876
 10
142.79335112248518
 20
33.237609261258093
 10
141.37884966680241
 20
32.489445527721529
 10
140.06825432243025
 20
31.8693558531122
 10
138.86544592836566
 20
31.372300118501599
 10
137.67703290012025
 20
30.97319668559809
  0
LWPOLYLINE
  5
6A
  8
KISS
 62
5
370
0
  6
CONTINUOUS
100
AcDbEntity
100
AcDbPolyline
 90
15
 70
0
 10
137.67703290012022
 20
30.973196685598126
 10
136.26145941598242
 20
30.528146235441053
 10
134.99155047234046
 20
30.020285688285661
 10
133.83616019010049
 20
29.440465605793889
 10
132.81680915670671
 20
28.80157543696544
 10
131.95439704394806
 20
28.129051210345423
 10
131.21978881497168
 20
27.415847851098626
 10
130.59600318925624
 20
26.653184840465798
 10
130.08881034924616
 20
25.854477692793907
 10
129.69107848497401
 20
25.013961538707303
 10
129.40967842866877
 20
24.151074331494534
 10
129.24270696324106
 20
23.267188333149065
 10
129.1922610522175
 20
22.36656662647075
 10
129.2598442459024
 20
21.476838656483313
 10
129.282407791742
 20
21.330091911090943
  0
LWPOLYLINE
  5
6B
  8
KISS
 62
5
370
0
  6
CONTINUOUS
100
AcDbEntity
100
AcDbPolyline
 90
3
 70
0
 10
129.282407791742
 20
21.330091911090943
 10
129.35037486293376
 20
20.913973993107252
 10
129.41700258978292
 20
20.497639523661832
  0
LWPOLYLINE
  5
6C
  8
KISS
 62
5
370
0
  6
CONTINUOUS
100
AcDbEntity
100
AcDbPolyline
 90
3
 70
0
 10
129.41700258978298
 20
20.497639523661814
 10
129.48229028239984
 20
20.081092813644521
 10
129.5462372647703
 20
19.664338176142781
  0
LWPOLYLINE
  5
6D
  8
KISS
 62
5
370
0
  6
CONTINUOUS
100
AcDbEntity
100
AcDbPolyline
 90
15
 70
0
 10
129.54623726477027
 20
19.664338176142806
 10
129.5701252956643
 20
19.5178012085745
 10
129.78079092201503
 20
18.650735269605111
 10
130.10707524728105
 20
17.809781770554864
 10
130.53901034209017
 20
17.020753252559192
 10
131.07328451058262
 20
16.287056150928159
 10
131.71128376749627
 20
15.610583690797259
 10
132.44046690516549
 20
15.007699260380814
 10
133.26939812054005
 20
14.475123993574048
 10
134.1884440220847
 20
14.023833718280191
 10
135.21646809681013
 20
13.650725169184092
 10
136.38335645921856
 20
13.358101303475227
 10
137.66137217517681
 20
13.163694868090456
 10
139.02606489097255
 20
13.073114230243203
 10
140.50988342980921
 20
13.087282362926349
  0
LWPOLYLINE
  5
6E
  8
KISS
 62
5
370
0
  6
CONTINUOUS
100
AcDbEntity
100
AcDbPolyline
 90
15
 70
0
 10
140.50988342980924
 20
13.087282362926381
 10
141.76346112765262
 20
13.074952264452158
 10
143.06099855782847
 20
12.973912403831676
 10
144.4990670478104
 20
12.789168312266824
 10
146.07553318278434
 20
12.514727306605245
 10
147.71727052266161
 20
12.159414888525006
 10
149.42332900211068
 20
11.722444961003802
 10
151.22198017783995
 20
11.192687108207089
 10
153.09114312991269
 20
10.571533249647011
 10
155.0100572192471
 20
9.8624802728601537
 10
156.95936172705581
 20
9.0708452889753701
 10
158.92114390645418
 20
8.2034928969729179
 10
160.87895914468504
 20
7.2685762884878073
 10
162.91179049120231
 20
6.2254603945861078
 10
164.91791103913701
 20
5.1242194271213322
  0
LWPOLYLINE
  5
6F
  8
KISS
 62
5
370
0
  6
CONTINUOUS
100
AcDbEntity
100
AcDbPolyline
 90
3
 70
0
 10
164.91791103913701
 20
5.1242194271212895
 10
164.9776015599239
 20
2.5624187372470217
 10
164.9975
 20
-0.0000000000000071
  0
LWPOLYLINE
  5
70
  8
KISS
 62
5
370
0
  6
CONTINUOUS
100
AcDbEntity
100
AcDbPolyline
 90
3
 70
0
 10
133.4857815293804
 20
96.983097165127319
 10
134.97583529714899
 20
94.898360850369343
 10
136.43333331625007
 20
92.790735348239409
  0
LWPOLYLINE
  5
71
  8
KISS
 62
5
370
0
  6
CONTINUOUS
100
AcDbEntity
100
AcDbPolyline
 90
15
 70
0
 10
136.4333333162501
 20
92.790735348239366
 10
135.45764090010223
 20
90.720644618261531
 10
134.42617393293892
 20
88.681877847111735
 10
133.39179832795483
 20
86.774739498778345
 10
132.31450015011924
 20
84.919930040276043
 10
131.20279104481656
 20
83.133711443054295
 10
130.06712781864883
 20
81.432166132794578
 10
128.92004830263215
 20
79.830975687738089
 10
127.77629278767472
 20
78.345171946809771
 10
126.6529069634952
 20
76.988859835645627
 10
125.53356095453854
 20
75.736417054588557
 10
124.41948543604025
 20
74.587766072178795
 10
123.36465344103974
 20
73.593029512294592
 10
122.37431334915628
 20
72.748613182188492
 10
121.367395137874
 20
72.00180343958543
  0
LWPOLYLINE
  5
72
  8
KISS
 62
5
370
0
  6
CONTINUOUS
100
AcDbEntity
100
AcDbPolyline
 90
15
 70
0
 10
121.36739513787398
 20
72.001803439585458
 10
120.15863290394284
 20
71.141099045498336
 10
119.10781526783424
 20
70.265671517862884
 10
118.18814807021565
 20
69.357194617782469
 10
117.41611554722137
 20
68.434577166968921
 10
116.80373430280486
 20
67.528468619878367
 10
116.32547231816537
 20
66.623165490661719
 10
115.96789276532417
 20
65.705069505469211
 10
115.73233779197368
 20
64.788722661075937
 10
115.61380608637887
 20
63.866438390416008
 10
115.61282554040143
 20
62.958826489552195
 10
115.72716203474988
 20
62.066603930770832
 10
115.95749253521704
 20
61.194473144114546
 10
116.29670903505996
 20
60.369175915910716
 10
116.36351548055687
 20
60.236583986577983
  0
LWPOLYLINE
  5
73
  8
KISS
 62
5
370
0
  6
CONTINUOUS
100
AcDbEntity
100
AcDbPolyline
 90
3
 70
0
 10
116.36351548055687
 20
60.236583986577983
 10
116.55674351482818
 20
59.861835309188564
 10
116.74876467501672
 20
59.486466798957181
  0
LWPOLYLINE
  5
74
  8
KISS
 62
5
370
0
  6
CONTINUOUS
100
AcDbEntity
100
AcDbPolyline
 90
3
 70
0
 10
116.74876467501679
 20
59.486466798957181
 10
116.93957697286022
 20
59.110482342596057
 10
117.12917843261368
 20
58.733885833195281
  0
LWPOLYLINE
  5
75
  8
KISS
 62
5
370
0
  6
CONTINUOUS
100
AcDbEntity
100
AcDbPolyline
 90
15
 70
0
 10
117.12917843261364
 20
58.733885833195288
 10
117.19717971333964
 20
58.601902702819729
 10
117.66547274042512
 20
57.842373250178341
 10
118.23565649681994
 20
57.143406346510744
 10
118.89027440446188
 20
56.526470917691235
 10
119.62512420702241
 20
55.993783305917887
 10
120.44093904410867
 20
55.547572377401082
 10
121.32073495340427
 20
55.199525192832056
 10
122.27367019557379
 20
54.949169847636483
 10
123.28719115347411
 20
54.803968092765558
 10
124.38019703106733
 20
54.766797685579029
 10
125.58039955938855
 20
54.849084185795675
 10
126.85593962632804
 20
55.059121253922655
 10
128.18183048288222
 20
55.394687189328437
 10
129.58864757946472
 20
55.866687029309595
  0
LWPOLYLINE
  5
76
  8
KISS
 62
5
370
0
  6
CONTINUOUS
100
AcDbEntity
100
AcDbPolyline
 90
15
 70
0
 10
129.58864757946472
 20
55.866687029309645
 10
130.7846810276518
 20
56.242337221212196
 10
132.04993548979843
 20
56.547203720125474
 10
133.47470896197839
 20
56.815889250475237
 10
135.05882428706673
 20
57.042035170465724
 10
136.73000685770134
 20
57.211437718251915
 10
138.48759602539681
 20
57.323055684805084
 10
140.36191912603385
 20
57.375039807097082
 10
142.33154583003673
 20
57.361890499738166
 10
144.37565099864813
 20
57.280518110116411
 10
146.47417841640527
 20
57.129996720290173
 10
148.60797077091433
 20
56.911319608648064
 10
150.75886883128098
 20
56.62715925641529
 10
153.01454686823354
 20
56.263276521040986
 10
155.26278306166896
 20
55.835859464999047
  0
LWPOLYLINE
  5
77
  8
KISS
 62
5
370
0
  6
CONTINUOUS
100
AcDbEntity
100
AcDbPolyline
 90
3
 70
0
 10
155.26278306166896
 20
55.835859464998997
 10
156.111192069797
 20
53.41788761077089
 10
156.92194754740962
 20
50.987031529380388
  0
LWPOLYLINE
  5
78
  8
KISS
 62
5
370
0
  6
CONTINUOUS
100
AcDbEntity
100
AcDbPolyline
 90
3
 70
0
 10
96.983097165127347
 20
133.4857815293804
 10
99.04444146064462
 20
131.96353140924555
 10
101.08189654713418
 20
130.40945209870512
  0
LWPOLYLINE
  5
79
  8
KISS
 62
5
370
0
  6
CONTINUOUS
100
AcDbEntity
100
AcDbPolyline
 90
15
 70
0
 10
101.08189654713422
 20
130.40945209870509
 10
100.79365113231822
 20
128.13917328276503
 10
100.44268133170658
 20
125.88145003786713
 10
100.04826983254888
 20
123.74801404370133
 10
99.596866024530058
 20
121.65108197674647
 10
99.091539737917401
 20
119.60875013399126
 10
98.537266243923057
 20
117.63954514212477
 10
97.941123854259928
 20
115.76225547117572
 10
97.312486324963871
 20
113.99573224989823
 10
96.663206408590611
 20
112.35865746753414
 10
95.985671196612273
 20
110.82161665996959
 10
95.281075089269649
 20
109.38491638996692
 10
94.585260748758103
 20
108.11290469002643
 10
93.904330347354502
 20
107.00378511821016
 10
93.177471123167365
 20
105.98237200684297
  0
LWPOLYLINE
  5
7A
  8
KISS
 62
5
370
0
  6
CONTINUOUS
100
AcDbEntity
100
AcDbPolyline
 90
15
 70
0
 10
93.177471123167336
 20
105.98237200684298
 10
92.293842208841752
 20
104.7902654117992
 10
91.564977231965813
 20
103.63296384955089
 10
90.971056551969653
 20
102.48475818059245
 10
90.52191446179242
 20
101.36872567213321
 10
90.219508228632549
 20
100.31772902239084
 10
90.044408103633671
 20
99.308943501109837
 10
89.98803700170204
 20
98.325284173139153
 10
90.047177657010693
 20
97.380996045717595
 10
90.219448819295806
 20
96.467223268828889
 10
90.498983766318304
 20
95.603730050874546
 10
90.883436167746879
 20
94.790507892190931
 10
91.371996725512062
 20
94.032238263447098
 10
91.949641657048033
 20
93.352157619907359
 10
92.054151521849178
 20
93.246699528499633
  0
LWPOLYLINE
  5
7B
  8
KISS
 62
5
370
0
  6
CONTINUOUS
100
AcDbEntity
100
AcDbPolyline
 90
3
 70
0
 10
92.054151521849178
 20
93.246699528499633
 10
92.353726012906662
 20
92.950003103274952
 10
92.652344237385236
 20
92.652344237385236
  0
LWPOLYLINE
  5
7C
  8
KISS
 62
5
370
0
  6
CONTINUOUS
100
AcDbEntity
100
AcDbPolyline
 90
3
 70
0
 10
92.652344237385293
 20
92.65234423738525
 10
92.950003103274966
 20
92.353726012906677
 10
93.246699528499704
 20
92.054151521849178
  0
LWPOLYLINE
  5
7D
  8
KISS
 62
5
370
0
  6
CONTINUOUS
100
AcDbEntity
100
AcDbPolyline
 90
15
 70
0
 10
93.246699528499661
 20
92.054151521849164
 10
93.352157619907388
 20
91.949641657048062
 10
94.032238263447098
 20
91.371996725512076
 10
94.790507892190959
 20
90.883436167746893
 10
95.60373005087456
 20
90.498983766318275
 10
96.467223268828931
 20
90.219448819295806
 10
97.380996045717609
 20
90.047177657010693
 10
98.325284173139181
 20
89.988037001702054
 10
99.308943501109837
 20
90.044408103633643
 10
100.31772902239084
 20
90.219508228632549
 10
101.36872567213322
 20
90.521914461792448
 10
102.48475818059248
 20
90.971056551969667
 10
103.63296384955089
 20
91.564977231965813
 10
104.79026541179923
 20
92.293842208841752
 10
105.98237200684298
 20
93.177471123167322
  0
LWPOLYLINE
  5
7E
  8
KISS
 62
5
370
0
  6
CONTINUOUS
100
AcDbEntity
100
AcDbPolyline
 90
15
 70
0
 10
105.98237200684298
 20
93.177471123167351
 10
107.00378511821016
 20
93.904330347354488
 10
108.11290469002643
 20
94.585260748758088
 10
109.38491638996695
 20
95.281075089269649
 10
110.82161665996962
 20
95.985671196612273
 10
112.35865746753419
 20
96.663206408590639
 10
113.99573224989824
 20
97.312486324963871
 10
115.76225547117575
 20
97.941123854259942
 10
117.6395451421248
 20
98.537266243923071
 10
119.60875013399126
 20
99.091539737917387
 10
121.6510819767465
 20
99.596866024530058
 10
123.74801404370135
 20
100.04826983254888
 10
125.88145003786715
 20
100.44268133170658
 10
128.13917328276506
 20
100.79365113231822
 10
130.40945209870512
 20
101.08189654713421
  0
LWPOLYLINE
  5
7F
  8
KISS
 62
5
370
0
  6
CONTINUOUS
100
AcDbEntity
100
AcDbPolyline
 90
3
 70
0
 10
130.40945209870512
 20
101.08189654713416
 10
131.96353140924558
 20
99.044441460644606
 10
133.4857815293804
 20
96.983097165127347
  0
LWPOLYLINE
  5
80
  8
KISS
 62
5
370
0
  6
CONTINUOUS
100
AcDbEntity
100
AcDbPolyline
 90
3
 70
0
 10
50.987031529380388
 20
156.92194754740959
 10
53.417887610770904
 20
156.111192069797
 10
55.835859464999004
 20
155.26278306166896
  0
LWPOLYLINE
  5
81
  8
KISS
 62
5
370
0
  6
CONTINUOUS
100
AcDbEntity
100
AcDbPolyline
 90
15
 70
0
 10
55.835859464999047
 20
155.26278306166893
 10
56.263276521041007
 20
153.01454686823351
 10
56.627159256415297
 20
150.75886883128095
 10
56.911319608648071
 20
148.60797077091428
 10
57.129996720290166
 20
146.47417841640524
 10
57.280518110116432
 20
144.3756509986481
 10
57.361890499738145
 20
142.3315458300367
 10
57.375039807097082
 20
140.36191912603383
 10
57.323055684805098
 20
138.48759602539678
 10
57.211437718251901
 20
136.73000685770128
 10
57.042035170465724
 20
135.0588242870667
 10
56.81588925047523
 20
133.47470896197837
 10
56.547203720125481
 20
132.0499354897984
 10
56.242337221212217
 20
130.7846810276518
 10
55.866687029309645
 20
129.58864757946469
  0
LWPOLYLINE
  5
82
  8
KISS
 62
5
370
0
  6
CONTINUOUS
100
AcDbEntity
100
AcDbPolyline
 90
15
 70
0
 10
55.86668702930961
 20
129.58864757946472
 10
55.394687189328423
 20
128.18183048288222
 10
55.059121253922655
 20
126.855939626328
 10
54.849084185795682
 20
125.58039955938852
 10
54.766797685579007
 20
124.38019703106728
 10
54.803968092765565
 20
123.2871911534741
 10
54.949169847636497
 20
122.27367019557379
 10
55.199525192832063
 20
121.32073495340424
 10
55.547572377401089
 20
120.44093904410866
 10
55.993783305917873
 20
119.62512420702237
 10
56.526470917691242
 20
118.89027440446186
 10
57.143406346510737
 20
118.23565649681989
 10
57.842373250178341
 20
117.6654727404251
 10
58.601902702819714
 20
117.19717971333959
 10
58.733885833195302
 20
117.12917843261363
  0
LWPOLYLINE
  5
83
  8
KISS
 62
5
370
0
  6
CONTINUOUS
100
AcDbEntity
100
AcDbPolyline
 90
3
 70
0
 10
58.733885833195302
 20
117.12917843261363
 10
59.110482342596057
 20
116.93957697286019
 10
59.486466798957174
 20
116.7487646750167
  0
LWPOLYLINE
  5
84
  8
KISS
 62
5
370
0
  6
CONTINUOUS
100
AcDbEntity
100
AcDbPolyline
 90
3
 70
0
 10
59.486466798957238
 20
116.74876467501674
 10
59.861835309188578
 20
116.55674351482818
 10
60.236583986578026
 20
116.36351548055688
  0
LWPOLYLINE
  5
85
  8
KISS
 62
5
370
0
  6
CONTINUOUS
100
AcDbEntity
100
AcDbPolyline
 90
15
 70
0
 10
60.23658398657799
 20
116.36351548055686
 10
60.369175915910731
 20
116.29670903505998
 10
61.194473144114554
 20
115.95749253521703
 10
62.06660393077086
 20
115.72716203474991
 10
62.958826489552195
 20
115.6128255404014
 10
63.866438390416022
 20
115.61380608637889
 10
64.788722661075937
 20
115.73233779197366
 10
65.705069505469226
 20
115.96789276532418
 10
66.623165490661719
 20
116.32547231816534
 10
67.528468619878382
 20
116.80373430280486
 10
68.434577166968936
 20
117.41611554722138
 10
69.357194617782483
 20
118.18814807021566
 10
70.265671517862899
 20
119.10781526783424
 10
71.141099045498351
 20
120.15863290394283
 10
72.001803439585458
 20
121.36739513787396
  0
LWPOLYLINE
  5
86
  8
KISS
 62
5
370
0
  6
CONTINUOUS
100
AcDbEntity
100
AcDbPolyline
 90
15
 70
0
 10
72.001803439585444
 20
121.367395137874
 10
72.748613182188492
 20
122.37431334915627
 10
73.593029512294578
 20
123.36465344103974
 10
74.587766072178823
 20
124.41948543604023
 10
75.736417054588557
 20
125.53356095453854
 10
76.988859835645655
 20
126.65290696349523
 10
78.345171946809785
 20
127.77629278767473
 10
79.830975687738103
 20
128.92004830263215
 10
81.432166132794592
 20
130.06712781864888
 10
83.133711443054324
 20
131.20279104481656
 10
84.919930040276057
 20
132.31450015011922
 10
86.774739498778359
 20
133.3917983279548
 10
88.681877847111764
 20
134.42617393293892
 10
90.720644618261559
 20
135.45764090010223
 10
92.790735348239394
 20
136.4333333162501
  0
LWPOLYLINE
  5
87
  8
KISS
 62
5
370
0
  6
CONTINUOUS
100
AcDbEntity
100
AcDbPolyline
 90
3
 70
0
 10
92.790735348239409
 20
136.43333331625004
 10
94.898360850369343
 20
134.97583529714896
 10
96.983097165127347
 20
133.4857815293804
  0
LWPOLYLINE
  5
88
  8
KISS
 62
5
370
0
  6
CONTINUOUS
100
AcDbEntity
100
AcDbPolyline
 90
3
 70
0
 10
0.0000000000000102
 20
164.9975
 10
2.5624187372470328
 20
164.9776015599239
 10
5.124219427121302
 20
164.91791103913701
  0
LWPOLYLINE
  5
89
  8
KISS
 62
5
370
0
  6
CONTINUOUS
100
AcDbEntity
100
AcDbPolyline
 90
15
 70
0
 10
5.1242194271213393
 20
164.91791103913701
 10
6.2254603945861202
 20
162.91179049120231
 10
7.2685762884878127
 20
160.87895914468501
 10
8.2034928969729286
 20
158.9211439064542
 10
9.070845288975379
 20
156.95936172705581
 10
9.8624802728601733
 20
155.0100572192471
 10
10.571533249647006
 20
153.09114312991264
 10
11.192687108207096
 20
151.22198017783992
 10
11.722444961003806
 20
149.42332900211065
 10
12.159414888525006
 20
147.71727052266155
 10
12.51472730660525
 20
146.07553318278431
 10
12.789168312266826
 20
144.4990670478104
 10
12.973912403831687
 20
143.06099855782847
 10
13.074952264452174
 20
141.76346112765262
 10
13.087282362926391
 20
140.50988342980921
  0
LWPOLYLINE
  5
8A
  8
KISS
 62
5
370
0
  6
CONTINUOUS
100
AcDbEntity
100
AcDbPolyline
 90
15
 70
0
 10
13.087282362926357
 20
140.50988342980921
 10
13.073114230243199
 20
139.02606489097255
 10
13.163694868090456
 20
137.66137217517681
 10
13.358101303475227
 20
136.38335645921853
 10
13.650725169184089
 20
135.2164680968101
 10
14.023833718280198
 20
134.1884440220847
 10
14.475123993574062
 20
133.26939812054007
 10
15.007699260380821
 20
132.44046690516547
 10
15.61058369079727
 20
131.71128376749627
 10
16.287056150928159
 20
131.0732845105826
 10
17.020753252559199
 20
130.53901034209019
 10
17.809781770554864
 20
130.10707524728102
 10
18.650735269605121
 20
129.78079092201503
 10
19.517801208574504
 20
129.57012529566427
 10
19.664338176142817
 20
129.54623726477027
  0
LWPOLYLINE
  5
8B
  8
KISS
 62
5
370
0
  6
CONTINUOUS
100
AcDbEntity
100
AcDbPolyline
 90
3
 70
0
 10
19.664338176142817
 20
129.54623726477027
 10
20.081092813644528
 20
129.48229028239982
 10
20.497639523661835
 20
129.41700258978292
  0
LWPOLYLINE
  5
8C
  8
KISS
 62
5
370
0
  6
CONTINUOUS
100
AcDbEntity
100
AcDbPolyline
 90
3
 70
0
 10
20.497639523661874
 20
129.41700258978298
 10
20.913973993107263
 20
129.35037486293379
 10
21.330091911090985
 20
129.28240779174203
  0
LWPOLYLINE
  5
8D
  8
KISS
 62
5
370
0
  6
CONTINUOUS
100
AcDbEntity
100
AcDbPolyline
 90
15
 70
0
 10
21.330091911090953
 20
129.282407791742
 10
21.476838656483331
 20
129.25984424590246
 10
22.36656662647076
 20
129.1922610522175
 10
23.267188333149079
 20
129.24270696324112
 10
24.151074331494545
 20
129.40967842866877
 10
25.013961538707314
 20
129.69107848497404
 10
25.854477692793921
 20
130.08881034924616
 10
26.653184840465805
 20
130.59600318925627
 10
27.415847851098636
 20
131.21978881497165
 10
28.129051210345434
 20
131.95439704394809
 10
28.80157543696545
 20
132.81680915670674
 10
29.4404656057939
 20
133.83616019010051
 10
30.020285688285668
 20
134.99155047234049
 10
30.528146235441056
 20
136.26145941598244
 10
30.973196685598136
 20
137.67703290012022
  0
LWPOLYLINE
  5
8E
  8
KISS
 62
5
370
0
  6
CONTINUOUS
100
AcDbEntity
100
AcDbPolyline
 90
15
 70
0
 10
30.973196685598111
 20
137.67703290012025
 10
31.372300118501606
 20
138.86544592836563
 10
31.869355853112211
 20
140.06825432243025
 10
32.489445527721536
 20
141.37884966680241
 10
33.2376092612581
 20
142.79335112248521
 10
34.082856190115898
 20
144.2449385421213
 10
35.025640350657206
 20
145.7324654425471
 10
36.085283788870875
 20
147.27938018434861
 10
37.253639331122834
 20
148.86511269151822
 10
38.520965849444309
 20
150.47099902065102
 10
39.876223679519732
 20
152.08026911168389
 10
41.307348856553872
 20
153.67800820771191
 10
42.801505569705768
 20
155.251096027388
 10
44.421747170623973
 20
156.86209298770407
 10
46.089014910819131
 20
158.42972483344246
  0
LWPOLYLINE
  5
8F
  8
KISS
 62
5
370
0
  6
CONTINUOUS
100
AcDbEntity
100
AcDbPolyline
 90
3
 70
0
 10
46.089014910819174
 20
158.42972483344244
 10
48.54387753569975
 20
157.69485394282523
 10
50.987031529380403
 20
156.92194754740962
  0
LWPOLYLINE
  5
90
  8
KISS
 62
5
370
0
  6
CONTINUOUS
100
AcDbEntity
100
AcDbPolyline
 90
3
 70
0
 10
-50.987031529380374
 20
156.92194754740959
 10
-48.543877535699721
 20
157.69485394282523
 10
-46.089014910819145
 20
158.42972483344241
  0
LWPOLYLINE
  5
91
  8
KISS
 62
5
370
0
  6
CONTINUOUS
100
AcDbEntity
100
AcDbPolyline
 90
15
 70
0
 10
-46.089014910819103
 20
158.42972483344244
 10
-44.421747170623945
 20
156.86209298770407
 10
-42.801505569705739
 20
155.25109602738797
 10
-41.307348856553858
 20
153.67800820771191
 10
-39.876223679519711
 20
152.08026911168386
 10
-38.520965849444281
 20
150.47099902065105
 10
-37.25363933112282
 20
148.86511269151816
 10
-36.085283788870854
 20
147.27938018434858
 10
-35.025640350657184
 20
145.7324654425471
 10
-34.082856190115876
 20
144.24493854212128
 10
-33.237609261258086
 20
142.79335112248518
 10
-32.489445527721522
 20
141.37884966680241
 10
-31.869355853112193
 20
140.06825432243025
 10
-31.372300118501592
 20
138.86544592836566
 10
-30.973196685598083
 20
137.67703290012025
  0
LWPOLYLINE
  5
92
  8
KISS
 62
5
370
0
  6
CONTINUOUS
100
AcDbEntity
100
AcDbPolyline
 90
15
 70
0
 10
-30.973196685598118
 20
137.67703290012022
 10
-30.528146235441039
 20
136.26145941598242
 10
-30.020285688285654
 20
134.99155047234046
 10
-29.440465605793882
 20
133.83616019010049
 10
-28.801575436965432
 20
132.81680915670671
 10
-28.129051210345416
 20
131.95439704394806
 10
-27.415847851098619
 20
131.21978881497168
 10
-26.653184840465791
 20
130.59600318925624
 10
-25.8544776927939
 20
130.08881034924616
 10
-25.013961538707296
 20
129.69107848497401
 10
-24.151074331494527
 20
129.40967842866877
 10
-23.267188333149058
 20
129.24270696324106
 10
-22.366566626470743
 20
129.1922610522175
 10
-21.476838656483306
 20
129.2598442459024
 10
-21.330091911090935
 20
129.282407791742
  0
LWPOLYLINE
  5
93
  8
KISS
 62
5
370
0
  6
CONTINUOUS
100
AcDbEntity
100
AcDbPolyline
 90
3
 70
0
 10
-21.330091911090935
 20
129.282407791742
 10
-20.913973993107245
 20
129.35037486293376
 10
-20.497639523661825
 20
129.41700258978292
  0
LWPOLYLINE
  5
94
  8
KISS
 62
5
370
0
  6
CONTINUOUS
100
AcDbEntity
100
AcDbPolyline
 90
3
 70
0
 10
-20.497639523661807
 20
129.41700258978298
 10
-20.081092813644513
 20
129.48229028239984
 10
-19.664338176142774
 20
129.5462372647703
  0
LWPOLYLINE
  5
95
  8
KISS
 62
5
370
0
  6
CONTINUOUS
100
AcDbEntity
100
AcDbPolyline
 90
15
 70
0
 10
-19.664338176142799
 20
129.54623726477027
 10
-19.517801208574493
 20
129.5701252956643
 10
-18.650735269605104
 20
129.78079092201503
 10
-17.809781770554856
 20
130.10707524728105
 10
-17.020753252559185
 20
130.53901034209017
 10
-16.287056150928152
 20
131.07328451058262
 10
-15.610583690797252
 20
131.71128376749627
 10
-15.007699260380807
 20
132.44046690516549
 10
-14.475123993574041
 20
133.26939812054005
 10
-14.023833718280184
 20
134.1884440220847
 10
-13.650725169184085
 20
135.21646809681013
 10
-13.358101303475213
 20
136.38335645921856
 10
-13.163694868090449
 20
137.66137217517681
 10
-13.073114230243196
 20
139.02606489097255
 10
-13.087282362926342
 20
140.50988342980921
  0
LWPOLYLINE
  5
96
  8
KISS
 62
5
370
0
  6
CONTINUOUS
100
AcDbEntity
100
AcDbPolyline
 90
15
 70
0
 10
-13.087282362926373
 20
140.50988342980924
 10
-13.074952264452151
 20
141.76346112765262
 10
-12.973912403831669
 20
143.06099855782847
 10
-12.789168312266817
 20
144.4990670478104
 10
-12.514727306605238
 20
146.07553318278434
 10
-12.159414888524999
 20
147.71727052266161
 10
-11.722444961003795
 20
149.42332900211068
 10
-11.192687108207082
 20
151.22198017783995
 10
-10.571533249647004
 20
153.09114312991267
 10
-9.8624802728601466
 20
155.0100572192471
 10
-9.070845288975363
 20
156.95936172705581
 10
-8.2034928969729108
 20
158.92114390645418
 10
-7.2685762884878002
 20
160.87895914468504
 10
-6.2254603945861007
 20
162.91179049120231
 10
-5.1242194271213251
 20
164.91791103913701
  0
LWPOLYLINE
  5
97
  8
KISS
 62
5
370
0
  6
CONTINUOUS
100
AcDbEntity
100
AcDbPolyline
 90
3
 70
0
 10
-5.1242194271212753
 20
164.91791103913701
 10
-2.5624187372470146
 20
164.9776015599239
 10
0.0000000000000142
 20
164.9975
  0
LWPOLYLINE
  5
98
  8
KISS
 62
5
370
0
  6
CONTINUOUS
100
AcDbEntity
100
AcDbPolyline
 90
3
 70
0
 10
-96.983097165127319
 20
133.4857815293804
 10
-94.898360850369343
 20
134.97583529714899
 10
-92.790735348239409
 20
136.43333331625007
  0
LWPOLYLINE
  5
99
  8
KISS
 62
5
370
0
  6
CONTINUOUS
100
AcDbEntity
100
AcDbPolyline
 90
15
 70
0
 10
-92.790735348239366
 20
136.4333333162501
 10
-90.720644618261531
 20
135.45764090010223
 10
-88.681877847111735
 20
134.42617393293892
 10
-86.774739498778345
 20
133.39179832795483
 10
-84.919930040276043
 20
132.31450015011924
 10
-83.133711443054295
 20
131.20279104481656
 10
-81.432166132794578
 20
130.06712781864883
 10
-79.830975687738089
 20
128.92004830263215
 10
-78.345171946809771
 20
127.77629278767472
 10
-76.988859835645627
 20
126.6529069634952
 10
-75.736417054588557
 20
125.53356095453854
 10
-74.587766072178795
 20
124.41948543604025
 10
-73.593029512294592
 20
123.36465344103974
 10
-72.748613182188492
 20
122.37431334915628
 10
-72.00180343958543
 20
121.367395137874
  0
LWPOLYLINE
  5
9A
  8
KISS
 62
5
370
0
  6
CONTINUOUS
100
AcDbEntity
100
AcDbPolyline
 90
15
 70
0
 10
-72.001803439585458
 20
121.36739513787398
 10
-71.141099045498336
 20
120.15863290394284
 10
-70.265671517862884
 20
119.10781526783424
 10
-69.357194617782469
 20
118.18814807021565
 10
-68.434577166968921
 20
117.41611554722137
 10
-67.528468619878367
 20
116.80373430280486
 10
-66.623165490661719
 20
116.32547231816537
 10
-65.705069505469211
 20
115.96789276532417
 10
-64.788722661075937
 20
115.73233779197368
 10
-63.866438390416008
 20
115.61380608637887
 10
-62.958826489552195
 20
115.61282554040143
 10
-62.066603930770832
 20
115.72716203474988
 10
-61.194473144114546
 20
115.95749253521704
 10
-60.369175915910716
 20
116.29670903505996
 10
-60.236583986577983
 20
116.36351548055687
  0
LWPOLYLINE
  5
9B
  8
KISS
 62
5
370
0
  6
CONTINUOUS
100
AcDbEntity
100
AcDbPolyline
 90
3
 70
0
 10
-60.236583986577983
 20
116.36351548055687
 10
-59.861835309188564
 20
116.55674351482818
 10
-59.486466798957181
 20
116.74876467501672
  0
LWPOLYLINE
  5
9C
  8
KISS
 62
5
370
0
  6
CONTINUOUS
100
AcDbEntity
100
AcDbPolyline
 90
3
 70
0
 10
-59.486466798957181
 20
116.74876467501679
 10
-59.110482342596057
 20
116.93957697286022
 10
-58.733885833195281
 20
117.12917843261368
  0
LWPOLYLINE
  5
9D
  8
KISS
 62
5
370
0
  6
CONTINUOUS
100
AcDbEntity
100
AcDbPolyline
 90
15
 70
0
 10
-58.733885833195288
 20
117.12917843261364
 10
-58.601902702819729
 20
117.19717971333964
 10
-57.842373250178341
 20
117.66547274042512
 10
-57.143406346510744
 20
118.23565649681994
 10
-56.526470917691235
 20
118.89027440446188
 10
-55.993783305917887
 20
119.62512420702241
 10
-55.547572377401082
 20
120.44093904410867
 10
-55.199525192832056
 20
121.32073495340427
 10
-54.949169847636483
 20
122.27367019557379
 10
-54.803968092765558
 20
123.28719115347411
 10
-54.766797685579029
 20
124.38019703106733
 10
-54.849084185795675
 20
125.58039955938855
 10
-55.059121253922655
 20
126.85593962632804
 10
-55.394687189328437
 20
128.18183048288222
 10
-55.866687029309595
 20
129.58864757946472
  0
LWPOLYLINE
  5
9E
  8
KISS
 62
5
370
0
  6
CONTINUOUS
100
AcDbEntity
100
AcDbPolyline
 90
15
 70
0
 10
-55.866687029309645
 20
129.58864757946472
 10
-56.242337221212196
 20
130.7846810276518
 10
-56.547203720125474
 20
132.04993548979843
 10
-56.815889250475237
 20
133.47470896197839
 10
-57.042035170465724
 20
135.05882428706673
 10
-57.211437718251915
 20
136.73000685770134
 10
-57.323055684805084
 20
138.48759602539681
 10
-57.375039807097082
 20
140.36191912603385
 10
-57.361890499738166
 20
142.33154583003673
 10
-57.280518110116411
 20
144.37565099864813
 10
-57.129996720290173
 20
146.47417841640527
 10
-56.911319608648064
 20
148.60797077091433
 10
-56.62715925641529
 20
150.75886883128098
 10
-56.263276521040986
 20
153.01454686823354
 10
-55.835859464999047
 20
155.26278306166896
  0
LWPOLYLINE
  5
9F
  8
KISS
 62
5
370
0
  6
CONTINUOUS
100
AcDbEntity
100
AcDbPolyline
 90
3
 70
0
 10
-55.835859464998997
 20
155.26278306166896
 10
-53.41788761077089
 20
156.111192069797
 10
-50.987031529380388
 20
156.92194754740962
  0
LWPOLYLINE
  5
A0
  8
KISS
 62
5
370
0
  6
CONTINUOUS
100
AcDbEntity
100
AcDbPolyline
 90
3
 70
0
 10
-133.4857815293804
 20
96.983097165127347
 10
-131.96353140924555
 20
99.04444146064462
 10
-130.40945209870512
 20
101.08189654713418
  0
LWPOLYLINE
  5
A1
  8
KISS
 62
5
370
0
  6
CONTINUOUS
100
AcDbEntity
100
AcDbPolyline
 90
15
 70
0
 10
-130.40945209870509
 20
101.08189654713422
 10
-128.13917328276503
 20
100.79365113231822
 10
-125.88145003786713
 20
100.44268133170658
 10
-123.74801404370133
 20
100.04826983254888
 10
-121.65108197674647
 20
99.596866024530058
 10
-119.60875013399126
 20
99.091539737917401
 10
-117.63954514212477
 20
98.537266243923057
 10
-115.76225547117572
 20
97.941123854259928
 10
-113.99573224989823
 20
97.312486324963871
 10
-112.35865746753414
 20
96.663206408590611
 10
-110.82161665996959
 20
95.985671196612273
 10
-109.38491638996692
 20
95.281075089269649
 10
-108.11290469002643
 20
94.585260748758103
 10
-107.00378511821016
 20
93.904330347354502
 10
-105.98237200684297
 20
93.177471123167365
  0
LWPOLYLINE
  5
A2
  8
KISS
 62
5
370
0
  6
CONTINUOUS
100
AcDbEntity
100
AcDbPolyline
 90
15
 70
0
 10
-105.98237200684298
 20
93.177471123167336
 10
-104.7902654117992
 20
92.293842208841752
 10
-103.63296384955089
 20
91.564977231965813
 10
-102.48475818059245
 20
90.971056551969653
 10
-101.36872567213321
 20
90.52191446179242
 10
-100.31772902239084
 20
90.219508228632549
 10
-99.308943501109837
 20
90.044408103633671
 10
-98.325284173139153
 20
89.98803700170204
 10
-97.380996045717595
 20
90.047177657010693
 10
-96.467223268828889
 20
90.219448819295806
 10
-95.603730050874546
 20
90.498983766318304
 10
-94.790507892190931
 20
90.883436167746879
 10
-94.032238263447098
 20
91.371996725512062
 10
-93.352157619907359
 20
91.949641657048033
 10
-93.246699528499633
 20
92.054151521849178
  0
LWPOLYLINE
  5
A3
  8
KISS
 62
5
370
0
  6
CONTINUOUS
100
AcDbEntity
100
AcDbPolyline
 90
3
 70
0
 10
-93.246699528499633
 20
92.054151521849178
 10
-92.950003103274952
 20
92.353726012906662
 10
-92.652344237385236
 20
92.652344237385236
  0
LWPOLYLINE
  5
A4
  8
KISS
 62
5
370
0
  6
CONTINUOUS
100
AcDbEntity
100
AcDbPolyline
 90
3
 70
0
 10
-92.65234423738525
 20
92.652344237385293
 10
-92.353726012906677
 20
92.950003103274966
 10
-92.054151521849178
 20
93.246699528499704
  0
LWPOLYLINE
  5
A5
  8
KISS
 62
5
370
0
  6
CONTINUOUS
100
AcDbEntity
100
AcDbPolyline
 90
15
 70
0
 10
-92.054151521849164
 20
93.246699528499661
 10
-91.949641657048062
 20
93.352157619907388
 10
-91.371996725512076
 20
94.032238263447098
 10
-90.883436167746893
 20
94.790507892190959
 10
-90.498983766318275
 20
95.60373005087456
 10
-90.219448819295806
 20
96.467223268828931
 10
-90.047177657010693
 20
97.380996045717609
 10
-89.988037001702054
 20
98.325284173139181
 10
-90.044408103633643
 20
99.308943501109837
 10
-90.219508228632549
 20
100.31772902239084
 10
-90.521914461792448
 20
101.36872567213322
 10
-90.971056551969667
 20
102.48475818059248
 10
-91.564977231965813
 20
103.63296384955089
 10
-92.293842208841752
 20
104.79026541179923
 10
-93.177471123167322
 20
105.98237200684298
  0
LWPOLYLINE
  5
A6
  8
KISS
 62
5
370
0
  6
CONTINUOUS
100
AcDbEntity
100
AcDbPolyline
 90
15
 70
0
 10
-93.177471123167351
 20
105.98237200684298
 10
-93.904330347354488
 20
107.00378511821016
 10
-94.585260748758088
 20
108.11290469002643
 10
-95.281075089269649
 20
109.38491638996695
 10
-95.985671196612273
 20
110.82161665996962
 10
-96.663206408590639
 20
112.35865746753419
 10
-97.312486324963871
 20
113.99573224989824
 10
-97.941123854259942
 20
115.76225547117575
 10
-98.537266243923071
 20
117.6395451421248
 10
-99.091539737917387
 20
119.60875013399126
 10
-99.596866024530058
 20
121.6510819767465
 10
-100.04826983254888
 20
123.74801404370135
 10
-100.44268133170658
 20
125.88145003786715
 10
-100.79365113231822
 20
128.13917328276506
 10
-101.08189654713421
 20
130.40945209870512
  0
LWPOLYLINE
  5
A7
  8
KISS
 62
5
370
0
  6
CONTINUOUS
100
AcDbEntity
100
AcDbPolyline
 90
3
 70
0
 10
-101.08189654713416
 20
130.40945209870512
 10
-99.044441460644606
 20
131.96353140924558
 10
-96.983097165127347
 20
133.4857815293804
  0
LWPOLYLINE
  5
A8
  8
KISS
 62
5
370
0
  6
CONTINUOUS
100
AcDbEntity
100
AcDbPolyline
 90
3
 70
0
 10
-156.92194754740959
 20
50.987031529380403
 10
-156.111192069797
 20
53.417887610770919
 10
-155.26278306166896
 20
55.835859464999018
  0
LWPOLYLINE
  5
A9
  8
KISS
 62
5
370
0
  6
CONTINUOUS
100
AcDbEntity
100
AcDbPolyline
 90
15
 70
0
 10
-155.26278306166893
 20
55.835859464999061
 10
-153.01454686823351
 20
56.263276521041007
 10
-150.75886883128095
 20
56.627159256415311
 10
-148.60797077091428
 20
56.911319608648085
 10
-146.47417841640524
 20
57.129996720290173
 10
-144.3756509986481
 20
57.280518110116432
 10
-142.3315458300367
 20
57.361890499738152
 10
-140.36191912603383
 20
57.375039807097096
 10
-138.48759602539678
 20
57.323055684805105
 10
-136.73000685770128
 20
57.211437718251915
 10
-135.0588242870667
 20
57.042035170465731
 10
-133.47470896197837
 20
56.815889250475237
 10
-132.0499354897984
 20
56.547203720125495
 10
-130.7846810276518
 20
56.242337221212225
 10
-129.58864757946469
 20
55.866687029309652
  0
LWPOLYLINE
  5
AA
  8
KISS
 62
5
370
0
  6
CONTINUOUS
100
AcDbEntity
100
AcDbPolyline
 90
15
 70
0
 10
-129.58864757946472
 20
55.866687029309617
 10
-128.18183048288222
 20
55.394687189328437
 10
-126.855939626328
 20
55.059121253922662
 10
-125.58039955938852
 20
54.849084185795689
 10
-124.38019703106728
 20
54.766797685579022
 10
-123.2871911534741
 20
54.803968092765572
 10
-122.27367019557379
 20
54.949169847636504
 10
-121.32073495340424
 20
55.19952519283207
 10
-120.44093904410866
 20
55.547572377401096
 10
-119.62512420702237
 20
55.993783305917873
 10
-118.89027440446186
 20
56.526470917691249
 10
-118.23565649681989
 20
57.143406346510744
 10
-117.6654727404251
 20
57.842373250178348
 10
-117.19717971333959
 20
58.601902702819729
 10
-117.12917843261363
 20
58.733885833195302
  0
LWPOLYLINE
  5
AB
  8
KISS
 62
5
370
0
  6
CONTINUOUS
100
AcDbEntity
100
AcDbPolyline
 90
3
 70
0
 10
-117.12917843261363
 20
58.733885833195302
 10
-116.93957697286019
 20
59.110482342596072
 10
-116.7487646750167
 20
59.486466798957181
  0
LWPOLYLINE
  5
AC
  8
KISS
 62
5
370
0
  6
CONTINUOUS
100
AcDbEntity
100
AcDbPolyline
 90
3
 70
0
 10
-116.74876467501674
 20
59.486466798957238
 10
-116.55674351482818
 20
59.861835309188592
 10
-116.36351548055687
 20
60.23658398657804
  0
LWPOLYLINE
  5
AD
  8
KISS
 62
5
370
0
  6
CONTINUOUS
100
AcDbEntity
100
AcDbPolyline
 90
15
 70
0
 10
-116.36351548055686
 20
60.236583986577998
 10
-116.29670903505998
 20
60.369175915910745
 10
-115.95749253521703
 20
61.194473144114568
 10
-115.72716203474991
 20
62.066603930770867
 10
-115.6128255404014
 20
62.958826489552209
 10
-115.61380608637887
 20
63.866438390416029
 10
-115.73233779197366
 20
64.788722661075951
 10
-115.96789276532417
 20
65.705069505469226
 10
-116.32547231816532
 20
66.623165490661734
 10
-116.80373430280486
 20
67.528468619878396
 10
-117.41611554722138
 20
68.43457716696895
 10
-118.18814807021566
 20
69.357194617782497
 10
-119.10781526783424
 20
70.265671517862899
 10
-120.15863290394283
 20
71.141099045498351
 10
-121.36739513787396
 20
72.001803439585473
  0
LWPOLYLINE
  5
AE
  8
KISS
 62
5
370
0
  6
CONTINUOUS
100
AcDbEntity
100
AcDbPolyline
 90
15
 70
0
 10
-121.367395137874
 20
72.001803439585444
 10
-122.37431334915627
 20
72.748613182188507
 10
-123.36465344103974
 20
73.593029512294592
 10
-124.41948543604023
 20
74.587766072178823
 10
-125.53356095453854
 20
75.736417054588571
 10
-126.65290696349523
 20
76.98885983564567
 10
-127.77629278767473
 20
78.345171946809799
 10
-128.92004830263215
 20
79.830975687738118
 10
-130.06712781864886
 20
81.432166132794606
 10
-131.20279104481656
 20
83.133711443054324
 10
-132.31450015011922
 20
84.919930040276057
 10
-133.3917983279548
 20
86.774739498778359
 10
-134.42617393293892
 20
88.681877847111764
 10
-135.45764090010223
 20
90.720644618261559
 10
-136.4333333162501
 20
92.790735348239394
  0
LWPOLYLINE
  5
AF
  8
KISS
 62
5
370
0
  6
CONTINUOUS
100
AcDbEntity
100
AcDbPolyline
 90
3
 70
0
 10
-136.43333331625004
 20
92.790735348239423
 10
-134.97583529714896
 20
94.898360850369357
 10
-133.4857815293804
 20
96.983097165127361
  0
LWPOLYLINE
  5
B0
  8
KISS
 62
5
370
0
  6
CONTINUOUS
100
AcDbEntity
100
AcDbPolyline
 90
3
 70
0
 10
-164.9975
 20
0.0000000000000204
 10
-164.9776015599239
 20
2.5624187372470431
 10
-164.91791103913701
 20
5.1242194271213117
  0
LWPOLYLINE
  5
B1
  8
KISS
 62
5
370
0
  6
CONTINUOUS
100
AcDbEntity
100
AcDbPolyline
 90
15
 70
0
 10
-164.91791103913701
 20
5.124219427121349
 10
-162.91179049120231
 20
6.22546039458613
 10
-160.87895914468501
 20
7.2685762884878224
 10
-158.9211439064542
 20
8.2034928969729375
 10
-156.95936172705581
 20
9.0708452889753879
 10
-155.0100572192471
 20
9.8624802728601821
 10
-153.09114312991264
 20
10.571533249647015
 10
-151.22198017783992
 20
11.192687108207105
 10
-149.42332900211065
 20
11.722444961003815
 10
-147.71727052266155
 20
12.159414888525015
 10
-146.07553318278431
 20
12.514727306605259
 10
-144.4990670478104
 20
12.789168312266835
 10
-143.06099855782847
 20
12.973912403831696
 10
-141.76346112765262
 20
13.074952264452183
 10
-140.50988342980921
 20
13.0872823629264
  0
LWPOLYLINE
  5
B2
  8
KISS
 62
5
370
0
  6
CONTINUOUS
100
AcDbEntity
100
AcDbPolyline
 90
15
 70
0
 10
-140.50988342980921
 20
13.087282362926366
 10
-139.02606489097255
 20
13.073114230243208
 10
-137.66137217517681
 20
13.163694868090465
 10
-136.38335645921853
 20
13.358101303475236
 10
-135.2164680968101
 20
13.650725169184097
 10
-134.1884440220847
 20
14.023833718280207
 10
-133.26939812054007
 20
14.475123993574071
 10
-132.44046690516547
 20
15.00769926038083
 10
-131.71128376749627
 20
15.610583690797279
 10
-131.0732845105826
 20
16.287056150928166
 10
-130.53901034209019
 20
17.020753252559206
 10
-130.10707524728102
 20
17.809781770554871
 10
-129.78079092201503
 20
18.650735269605129
 10
-129.57012529566427
 20
19.517801208574511
 10
-129.54623726477027
 20
19.664338176142824
  0
LWPOLYLINE
  5
B3
  8
KISS
 62
5
370
0
  6
CONTINUOUS
100
AcDbEntity
100
AcDbPolyline
 90
3
 70
0
 10
-129.54623726477027
 20
19.664338176142824
 10
-129.48229028239982
 20
20.081092813644535
 10
-129.41700258978292
 20
20.497639523661842
  0
LWPOLYLINE
  5
B4
  8
KISS
 62
5
370
0
  6
CONTINUOUS
100
AcDbEntity
100
AcDbPolyline
 90
3
 70
0
 10
-129.41700258978298
 20
20.497639523661881
 10
-129.35037486293379
 20
20.91397399310727
 10
-129.28240779174203
 20
21.330091911090992
  0
LWPOLYLINE
  5
B5
  8
KISS
 62
5
370
0
  6
CONTINUOUS
100
AcDbEntity
100
AcDbPolyline
 90
15
 70
0
 10
-129.282407791742
 20
21.33009191109096
 10
-129.25984424590246
 20
21.476838656483338
 10
-129.1922610522175
 20
22.366566626470767
 10
-129.24270696324112
 20
23.267188333149086
 10
-129.40967842866877
 20
24.151074331494552
 10
-129.69107848497404
 20
25.013961538707321
 10
-130.08881034924616
 20
25.854477692793928
 10
-130.59600318925627
 20
26.653184840465812
 10
-131.21978881497165
 20
27.415847851098643
 10
-131.95439704394809
 20
28.129051210345441
 10
-132.81680915670674
 20
28.801575436965457
 10
-133.83616019010051
 20
29.440465605793907
 10
-134.99155047234049
 20
30.020285688285675
 10
-136.26145941598244
 20
30.528146235441064
 10
-137.67703290012022
 20
30.973196685598143
  0
LWPOLYLINE
  5
B6
  8
KISS
 62
5
370
0
  6
CONTINUOUS
100
AcDbEntity
100
AcDbPolyline
 90
15
 70
0
 10
-137.67703290012025
 20
30.973196685598118
 10
-138.86544592836563
 20
31.372300118501613
 10
-140.06825432243025
 20
31.869355853112218
 10
-141.37884966680241
 20
32.489445527721543
 10
-142.79335112248521
 20
33.237609261258108
 10
-144.2449385421213
 20
34.082856190115905
 10
-145.7324654425471
 20
35.025640350657213
 10
-147.27938018434861
 20
36.085283788870882
 10
-148.86511269151822
 20
37.253639331122841
 10
-150.47099902065102
 20
38.520965849444316
 10
-152.08026911168389
 20
39.87622367951974
 10
-153.67800820771191
 20
41.30734885655388
 10
-155.251096027388
 20
42.801505569705775
 10
-156.86209298770407
 20
44.421747170623981
 10
-158.42972483344246
 20
46.089014910819138
  0
LWPOLYLINE
  5
B7
  8
KISS
 62
5
370
0
  6
CONTINUOUS
100
AcDbEntity
100
AcDbPolyline
 90
3
 70
0
 10
-158.42972483344244
 20
46.089014910819181
 10
-157.69485394282523
 20
48.543877535699757
 10
-156.92194754740962
 20
50.98703152938041
  0
LWPOLYLINE
  5
B8
  8
KISS
 62
5
370
0
  6
CONTINUOUS
100
AcDbEntity
100
AcDbPolyline
 90
3
 70
0
 10
-156.92194754740962
 20
-50.987031529380367
 10
-157.69485394282523
 20
-48.543877535699714
 10
-158.42972483344244
 20
-46.089014910819131
  0
LWPOLYLINE
  5
B9
  8
KISS
 62
5
370
0
  6
CONTINUOUS
100
AcDbEntity
100
AcDbPolyline
 90
15
 70
0
 10
-158.42972483344246
 20
-46.089014910819103
 10
-156.8620929877041
 20
-44.421747170623931
 10
-155.251096027388
 20
-42.801505569705732
 10
-153.67800820771194
 20
-41.307348856553844
 10
-152.08026911168389
 20
-39.876223679519697
 10
-150.47099902065102
 20
-38.520965849444281
 10
-148.86511269151819
 20
-37.253639331122812
 10
-147.27938018434858
 20
-36.085283788870839
 10
-145.7324654425471
 20
-35.025640350657177
 10
-144.24493854212128
 20
-34.082856190115862
 10
-142.79335112248521
 20
-33.237609261258072
 10
-141.37884966680241
 20
-32.4894455277215
 10
-140.06825432243028
 20
-31.869355853112186
 10
-138.86544592836566
 20
-31.372300118501585
 10
-137.67703290012025
 20
-30.973196685598076
  0
LWPOLYLINE
  5
BA
  8
KISS
 62
5
370
0
  6
CONTINUOUS
100
AcDbEntity
100
AcDbPolyline
 90
15
 70
0
 10
-137.67703290012022
 20
-30.973196685598111
 10
-136.26145941598242
 20
-30.528146235441028
 10
-134.99155047234049
 20
-30.020285688285647
 10
-133.83616019010049
 20
-29.440465605793868
 10
-132.81680915670671
 20
-28.801575436965422
 10
-131.95439704394809
 20
-28.129051210345409
 10
-131.21978881497168
 20
-27.415847851098611
 10
-130.59600318925627
 20
-26.653184840465777
 10
-130.08881034924616
 20
-25.854477692793893
 10
-129.69107848497401
 20
-25.013961538707285
 10
-129.4096784286688
 20
-24.15107433149452
 10
-129.24270696324109
 20
-23.267188333149047
 10
-129.1922610522175
 20
-22.366566626470735
 10
-129.25984424590243
 20
-21.476838656483299
 10
-129.282407791742
 20
-21.330091911090928
  0
LWPOLYLINE
  5
BB
  8
KISS
 62
5
370
0
  6
CONTINUOUS
100
AcDbEntity
100
AcDbPolyline
 90
3
 70
0
 10
-129.282407791742
 20
-21.330091911090928
 10
-129.35037486293379
 20
-20.913973993107238
 10
-129.41700258978292
 20
-20.497639523661814
  0
LWPOLYLINE
  5
BC
  8
KISS
 62
5
370
0
  6
CONTINUOUS
100
AcDbEntity
100
AcDbPolyline
 90
3
 70
0
 10
-129.41700258978301
 20
-20.4976395236618
 10
-129.48229028239984
 20
-20.081092813644503
 10
-129.54623726477033
 20
-19.664338176142767
  0
LWPOLYLINE
  5
BD
  8
KISS
 62
5
370
0
  6
CONTINUOUS
100
AcDbEntity
100
AcDbPolyline
 90
15
 70
0
 10
-129.54623726477027
 20
-19.664338176142788
 10
-129.57012529566433
 20
-19.517801208574483
 10
-129.78079092201503
 20
-18.650735269605097
 10
-130.10707524728107
 20
-17.809781770554846
 10
-130.53901034209019
 20
-17.020753252559174
 10
-131.07328451058262
 20
-16.287056150928141
 10
-131.71128376749627
 20
-15.610583690797242
 10
-132.44046690516549
 20
-15.0076992603808
 10
-133.26939812054007
 20
-14.47512399357403
 10
-134.1884440220847
 20
-14.023833718280173
 10
-135.21646809681013
 20
-13.650725169184074
 10
-136.38335645921856
 20
-13.358101303475202
 10
-137.66137217517684
 20
-13.163694868090438
 10
-139.02606489097258
 20
-13.073114230243185
 10
-140.50988342980921
 20
-13.087282362926331
  0
LWPOLYLINE
  5
BE
  8
KISS
 62
5
370
0
  6
CONTINUOUS
100
AcDbEntity
100
AcDbPolyline
 90
15
 70
0
 10
-140.50988342980921
 20
-13.087282362926363
 10
-141.76346112765262
 20
-13.07495226445214
 10
-143.06099855782847
 20
-12.973912403831658
 10
-144.49906704781043
 20
-12.789168312266799
 10
-146.07553318278434
 20
-12.514727306605227
 10
-147.71727052266164
 20
-12.159414888524985
 10
-149.42332900211068
 20
-11.722444961003781
 10
-151.22198017783998
 20
-11.192687108207068
 10
-153.09114312991267
 20
-10.57153324964699
 10
-155.0100572192471
 20
-9.8624802728601395
 10
-156.95936172705584
 20
-9.0708452889753488
 10
-158.9211439064542
 20
-8.2034928969729037
 10
-160.87895914468504
 20
-7.2685762884877789
 10
-162.91179049120231
 20
-6.2254603945860865
 10
-164.91791103913704
 20
-5.1242194271213108
  0
LWPOLYLINE
  5
BF
  8
KISS
 62
5
370
0
  6
CONTINUOUS
100
AcDbEntity
100
AcDbPolyline
 90
3
 70
0
 10
-164.91791103913704
 20
-5.1242194271212611
 10
-164.9776015599239
 20
-2.5624187372469933
 10
-164.99750000000003
 20
0.0000000000000284
  0
LWPOLYLINE
  5
C0
  8
KISS
 62
5
370
0
  6
CONTINUOUS
100
AcDbEntity
100
AcDbPolyline
 90
3
 70
0
 10
-133.4857815293804
 20
-96.983097165127305
 10
-134.97583529714899
 20
-94.898360850369315
 10
-136.43333331625007
 20
-92.79073534823938
  0
LWPOLYLINE
  5
C1
  8
KISS
 62
5
370
0
  6
CONTINUOUS
100
AcDbEntity
100
AcDbPolyline
 90
15
 70
0
 10
-136.4333333162501
 20
-92.790735348239338
 10
-135.45764090010223
 20
-90.720644618261517
 10
-134.42617393293892
 20
-88.681877847111721
 10
-133.39179832795483
 20
-86.774739498778331
 10
-132.31450015011924
 20
-84.919930040276029
 10
-131.20279104481656
 20
-83.133711443054281
 10
-130.06712781864883
 20
-81.432166132794563
 10
-128.92004830263215
 20
-79.830975687738061
 10
-127.77629278767472
 20
-78.345171946809756
 10
-126.6529069634952
 20
-76.988859835645613
 10
-125.53356095453853
 20
-75.736417054588529
 10
-124.41948543604025
 20
-74.587766072178781
 10
-123.36465344103974
 20
-73.593029512294578
 10
-122.37431334915628
 20
-72.748613182188478
 10
-121.367395137874
 20
-72.001803439585416
  0
LWPOLYLINE
  5
C2
  8
KISS
 62
5
370
0
  6
CONTINUOUS
100
AcDbEntity
100
AcDbPolyline
 90
15
 70
0
 10
-121.36739513787398
 20
-72.001803439585444
 10
-120.15863290394284
 20
-71.141099045498322
 10
-119.10781526783424
 20
-70.265671517862856
 10
-118.18814807021565
 20
-69.357194617782454
 10
-117.41611554722137
 20
-68.434577166968893
 10
-116.80373430280486
 20
-67.528468619878353
 10
-116.32547231816537
 20
-66.623165490661705
 10
-115.96789276532417
 20
-65.705069505469197
 10
-115.73233779197368
 20
-64.788722661075923
 10
-115.61380608637886
 20
-63.866438390415993
 10
-115.61282554040143
 20
-62.95882648955218
 10
-115.72716203474988
 20
-62.066603930770817
 10
-115.95749253521704
 20
-61.194473144114532
 10
-116.29670903505996
 20
-60.369175915910702
 10
-116.36351548055687
 20
-60.236583986577969
  0
LWPOLYLINE
  5
C3
  8
KISS
 62
5
370
0
  6
CONTINUOUS
100
AcDbEntity
100
AcDbPolyline
 90
3
 70
0
 10
-116.36351548055687
 20
-60.236583986577969
 10
-116.55674351482818
 20
-59.86183530918855
 10
-116.74876467501672
 20
-59.486466798957167
  0
LWPOLYLINE
  5
C4
  8
KISS
 62
5
370
0
  6
CONTINUOUS
100
AcDbEntity
100
AcDbPolyline
 90
3
 70
0
 10
-116.74876467501679
 20
-59.486466798957167
 10
-116.93957697286022
 20
-59.110482342596043
 10
-117.12917843261368
 20
-58.733885833195266
  0
LWPOLYLINE
  5
C5
  8
KISS
 62
5
370
0
  6
CONTINUOUS
100
AcDbEntity
100
AcDbPolyline
 90
15
 70
0
 10
-117.12917843261364
 20
-58.733885833195274
 10
-117.19717971333964
 20
-58.601902702819714
 10
-117.66547274042512
 20
-57.842373250178326
 10
-118.23565649681993
 20
-57.14340634651073
 10
-118.89027440446186
 20
-56.526470917691221
 10
-119.6251242070224
 20
-55.993783305917859
 10
-120.44093904410867
 20
-55.547572377401067
 10
-121.32073495340427
 20
-55.199525192832041
 10
-122.27367019557379
 20
-54.949169847636469
 10
-123.28719115347411
 20
-54.803968092765544
 10
-124.38019703106733
 20
-54.766797685579014
 10
-125.58039955938855
 20
-54.849084185795661
 10
-126.85593962632804
 20
-55.05912125392264
 10
-128.18183048288222
 20
-55.394687189328423
 10
-129.58864757946472
 20
-55.866687029309581
  0
LWPOLYLINE
  5
C6
  8
KISS
 62
5
370
0
  6
CONTINUOUS
100
AcDbEntity
100
AcDbPolyline
 90
15
 70
0
 10
-129.58864757946472
 20
-55.866687029309631
 10
-130.7846810276518
 20
-56.242337221212182
 10
-132.04993548979843
 20
-56.547203720125459
 10
-133.47470896197839
 20
-56.815889250475209
 10
-135.05882428706673
 20
-57.042035170465709
 10
-136.73000685770134
 20
-57.211437718251901
 10
-138.48759602539681
 20
-57.32305568480507
 10
-140.36191912603385
 20
-57.375039807097068
 10
-142.33154583003673
 20
-57.361890499738152
 10
-144.3756509986481
 20
-57.280518110116397
 10
-146.47417841640524
 20
-57.129996720290144
 10
-148.60797077091431
 20
-56.91131960864805
 10
-150.75886883128098
 20
-56.627159256415275
 10
-153.01454686823354
 20
-56.263276521040972
 10
-155.26278306166896
 20
-55.835859464999032
  0
LWPOLYLINE
  5
C7
  8
KISS
 62
5
370
0
  6
CONTINUOUS
100
AcDbEntity
100
AcDbPolyline
 90
3
 70
0
 10
-155.26278306166896
 20
-55.835859464998983
 10
-156.111192069797
 20
-53.417887610770876
 10
-156.92194754740962
 20
-50.98703152938036
  0
LWPOLYLINE
  5
C8
  8
KISS
 62
5
370
0
  6
CONTINUOUS
100
AcDbEntity
100
AcDbPolyline
 90
3
 70
0
 10
-96.983097165127376
 20
-133.48578152938038
 10
-99.044441460644634
 20
-131.96353140924555
 10
-101.08189654713419
 20
-130.40945209870509
  0
LWPOLYLINE
  5
C9
  8
KISS
 62
5
370
0
  6
CONTINUOUS
100
AcDbEntity
100
AcDbPolyline
 90
15
 70
0
 10
-101.08189654713422
 20
-130.40945209870506
 10
-100.79365113231823
 20
-128.13917328276503
 10
-100.44268133170659
 20
-125.88145003786713
 10
-100.0482698325489
 20
-123.7480140437013
 10
-99.596866024530073
 20
-121.65108197674644
 10
-99.091539737917429
 20
-119.60875013399124
 10
-98.537266243923071
 20
-117.63954514212475
 10
-97.941123854259956
 20
-115.76225547117569
 10
-97.312486324963899
 20
-113.99573224989821
 10
-96.663206408590639
 20
-112.35865746753413
 10
-95.985671196612287
 20
-110.82161665996958
 10
-95.281075089269663
 20
-109.3849163899669
 10
-94.585260748758117
 20
-108.11290469002641
 10
-93.904330347354517
 20
-107.00378511821015
 10
-93.177471123167379
 20
-105.98237200684294
  0
LWPOLYLINE
  5
CA
  8
KISS
 62
5
370
0
  6
CONTINUOUS
100
AcDbEntity
100
AcDbPolyline
 90
15
 70
0
 10
-93.177471123167351
 20
-105.98237200684297
 10
-92.293842208841767
 20
-104.79026541179918
 10
-91.564977231965827
 20
-103.63296384955086
 10
-90.971056551969667
 20
-102.48475818059244
 10
-90.521914461792448
 20
-101.36872567213318
 10
-90.219508228632563
 20
-100.31772902239081
 10
-90.044408103633685
 20
-99.308943501109823
 10
-89.988037001702054
 20
-98.325284173139138
 10
-90.047177657010707
 20
-97.380996045717581
 10
-90.21944881929582
 20
-96.467223268828874
 10
-90.498983766318318
 20
-95.603730050874532
 10
-90.883436167746893
 20
-94.790507892190902
 10
-91.371996725512076
 20
-94.032238263447084
 10
-91.949641657048048
 20
-93.352157619907345
 10
-92.054151521849192
 20
-93.246699528499619
  0
LWPOLYLINE
  5
CB
  8
KISS
 62
5
370
0
  6
CONTINUOUS
100
AcDbEntity
100
AcDbPolyline
 90
3
 70
0
 10
-92.054151521849192
 20
-93.246699528499619
 10
-92.353726012906677
 20
-92.950003103274938
 10
-92.65234423738525
 20
-92.652344237385222
  0
LWPOLYLINE
  5
CC
  8
KISS
 62
5
370
0
  6
CONTINUOUS
100
AcDbEntity
100
AcDbPolyline
 90
3
 70
0
 10
-92.652344237385307
 20
-92.652344237385236
 10
-92.95000310327498
 20
-92.353726012906662
 10
-93.246699528499704
 20
-92.054151521849164
  0
LWPOLYLINE
  5
CD
  8
KISS
 62
5
370
0
  6
CONTINUOUS
100
AcDbEntity
100
AcDbPolyline
 90
15
 70
0
 10
-93.246699528499676
 20
-92.05415152184915
 10
-93.352157619907402
 20
-91.949641657048033
 10
-94.032238263447113
 20
-91.371996725512048
 10
-94.790507892190973
 20
-90.883436167746879
 10
-95.60373005087456
 20
-90.498983766318261
 10
-96.467223268828945
 20
-90.219448819295792
 10
-97.380996045717623
 20
-90.047177657010678
 10
-98.325284173139181
 20
-89.988037001702025
 10
-99.308943501109852
 20
-90.044408103633629
 10
-100.31772902239085
 20
-90.21950822863252
 10
-101.36872567213324
 20
-90.521914461792434
 10
-102.48475818059248
 20
-90.971056551969639
 10
-103.6329638495509
 20
-91.564977231965798
 10
-104.79026541179923
 20
-92.293842208841738
 10
-105.98237200684299
 20
-93.177471123167308
  0
LWPOLYLINE
  5
CE
  8
KISS
 62
5
370
0
  6
CONTINUOUS
100
AcDbEntity
100
AcDbPolyline
 90
15
 70
0
 10
-105.98237200684299
 20
-93.177471123167336
 10
-107.00378511821017
 20
-93.904330347354474
 10
-108.11290469002644
 20
-94.585260748758074
 10
-109.38491638996696
 20
-95.281075089269635
 10
-110.82161665996964
 20
-95.985671196612259
 10
-112.3586574675342
 20
-96.663206408590611
 10
-113.99573224989825
 20
-97.312486324963857
 10
-115.76225547117576
 20
-97.941123854259928
 10
-117.63954514212482
 20
-98.537266243923057
 10
-119.60875013399128
 20
-99.091539737917373
 10
-121.6510819767465
 20
-99.596866024530044
 10
-123.74801404370135
 20
-100.04826983254885
 10
-125.88145003786718
 20
-100.44268133170657
 10
-128.13917328276506
 20
-100.79365113231817
 10
-130.40945209870512
 20
-101.08189654713421
  0
LWPOLYLINE
  5
CF
  8
KISS
 62
5
370
0
  6
CONTINUOUS
100
AcDbEntity
100
AcDbPolyline
 90
3
 70
0
 10
-130.40945209870512
 20
-101.08189654713415
 10
-131.96353140924558
 20
-99.044441460644592
 10
-133.48578152938043
 20
-96.983097165127305
  0
LWPOLYLINE
  5
D0
  8
KISS
 62
5
370
0
  6
CONTINUOUS
100
AcDbEntity
100
AcDbPolyline
 90
3
 70
0
 10
-50.98703152938041
 20
-156.92194754740959
 10
-53.417887610770926
 20
-156.111192069797
 10
-55.835859464999032
 20
-155.26278306166893
  0
LWPOLYLINE
  5
D1
  8
KISS
 62
5
370
0
  6
CONTINUOUS
100
AcDbEntity
100
AcDbPolyline
 90
15
 70
0
 10
-55.835859464999061
 20
-155.26278306166893
 10
-56.263276521041021
 20
-153.01454686823351
 10
-56.627159256415318
 20
-150.75886883128095
 10
-56.911319608648085
 20
-148.60797077091428
 10
-57.12999672029018
 20
-146.47417841640524
 10
-57.280518110116446
 20
-144.3756509986481
 10
-57.361890499738159
 20
-142.3315458300367
 10
-57.375039807097096
 20
-140.36191912603383
 10
-57.323055684805112
 20
-138.48759602539678
 10
-57.211437718251915
 20
-136.73000685770128
 10
-57.042035170465738
 20
-135.0588242870667
 10
-56.815889250475244
 20
-133.47470896197837
 10
-56.547203720125495
 20
-132.0499354897984
 10
-56.242337221212232
 20
-130.7846810276518
 10
-55.866687029309659
 20
-129.58864757946469
  0
LWPOLYLINE
  5
D2
  8
KISS
 62
5
370
0
  6
CONTINUOUS
100
AcDbEntity
100
AcDbPolyline
 90
15
 70
0
 10
-55.866687029309624
 20
-129.58864757946472
 10
-55.394687189328451
 20
-128.18183048288222
 10
-55.059121253922669
 20
-126.855939626328
 10
-54.849084185795697
 20
-125.58039955938852
 10
-54.766797685579022
 20
-124.38019703106727
 10
-54.803968092765579
 20
-123.2871911534741
 10
-54.949169847636512
 20
-122.27367019557379
 10
-55.199525192832077
 20
-121.32073495340424
 10
-55.547572377401103
 20
-120.44093904410866
 10
-55.993783305917887
 20
-119.62512420702237
 10
-56.526470917691256
 20
-118.89027440446186
 10
-57.143406346510751
 20
-118.23565649681989
 10
-57.842373250178355
 20
-117.66547274042509
 10
-58.601902702819729
 20
-117.19717971333959
 10
-58.733885833195316
 20
-117.12917843261363
  0
LWPOLYLINE
  5
D3
  8
KISS
 62
5
370
0
  6
CONTINUOUS
100
AcDbEntity
100
AcDbPolyline
 90
3
 70
0
 10
-58.733885833195316
 20
-117.12917843261363
 10
-59.110482342596072
 20
-116.93957697286019
 10
-59.486466798957188
 20
-116.7487646750167
  0
LWPOLYLINE
  5
D4
  8
KISS
 62
5
370
0
  6
CONTINUOUS
100
AcDbEntity
100
AcDbPolyline
 90
3
 70
0
 10
-59.486466798957252
 20
-116.74876467501674
 10
-59.861835309188592
 20
-116.55674351482818
 10
-60.23658398657804
 20
-116.36351548055687
  0
LWPOLYLINE
  5
D5
  8
KISS
 62
5
370
0
  6
CONTINUOUS
100
AcDbEntity
100
AcDbPolyline
 90
15
 70
0
 10
-60.236583986578005
 20
-116.36351548055686
 10
-60.369175915910745
 20
-116.29670903505998
 10
-61.194473144114568
 20
-115.95749253521703
 10
-62.066603930770874
 20
-115.72716203474991
 10
-62.958826489552209
 20
-115.6128255404014
 10
-63.866438390416036
 20
-115.61380608637887
 10
-64.788722661075951
 20
-115.73233779197366
 10
-65.70506950546924
 20
-115.96789276532417
 10
-66.623165490661734
 20
-116.32547231816532
 10
-67.528468619878396
 20
-116.80373430280486
 10
-68.43457716696895
 20
-117.41611554722138
 10
-69.357194617782497
 20
-118.18814807021566
 10
-70.265671517862913
 20
-119.10781526783424
 10
-71.141099045498365
 20
-120.15863290394283
 10
-72.001803439585473
 20
-121.36739513787396
  0
LWPOLYLINE
  5
D6
  8
KISS
 62
5
370
0
  6
CONTINUOUS
100
AcDbEntity
100
AcDbPolyline
 90
15
 70
0
 10
-72.001803439585458
 20
-121.367395137874
 10
-72.748613182188507
 20
-122.37431334915627
 10
-73.593029512294606
 20
-123.36465344103972
 10
-74.587766072178823
 20
-124.41948543604023
 10
-75.736417054588571
 20
-125.53356095453853
 10
-76.988859835645684
 20
-126.65290696349523
 10
-78.345171946809813
 20
-127.77629278767472
 10
-79.830975687738118
 20
-128.92004830263215
 10
-81.432166132794606
 20
-130.06712781864886
 10
-83.133711443054324
 20
-131.20279104481656
 10
-84.919930040276071
 20
-132.31450015011922
 10
-86.774739498778359
 20
-133.39179832795477
 10
-88.681877847111764
 20
-134.42617393293892
 10
-90.720644618261559
 20
-135.45764090010223
 10
-92.790735348239394
 20
-136.4333333162501
  0
LWPOLYLINE
  5
D7
  8
KISS
 62
5
370
0
  6
CONTINUOUS
100
AcDbEntity
100
AcDbPolyline
 90
3
 70
0
 10
-92.790735348239423
 20
-136.43333331625004
 10
-94.898360850369357
 20
-134.97583529714896
 10
-96.983097165127361
 20
-133.48578152938038
  0
CIRCLE
  5
D8
100
AcDbEntity
100
AcDbCircle
  8
KISS
 62
98
370
0
  6
CONTINUOUS
 10
0.0
 20
0.0
 30
0.0
 40
164.9975
  0
CIRCLE
  5
D9
100
AcDbEntity
100
AcDbCircle
  8
KISS
 62
98
370
0
  6
CONTINUOUS
 10
0.0
 20
0.0
 30
0.0
 40
131.03020180617088
  0
CIRCLE
  5
DA
100
AcDbEntity
100
AcDbCircle
  8
KISS
 62
98
370
0
  6
CONTINUOUS
 10
0.0
 20
0.0
 30
0.0
 40
150.0
  0
LINE
  5
DB
100
AcDbEntity
100
AcDbLine
  8
KISS
 62
0
370
0
  6
DASHDOT
 10
-15.0
 20
0.0
 30
0.0
 11
15.0
 21
0.0
 31
0.0
  0
LINE
  5
DC
100
AcDbEntity
100
AcDbLine
  8
KISS
 62
0
370
0
  6
DASHDOT
 10
0.0
 20
15.0
 30
0.0
 11
0.0
 21
-15.0
 31
0.0
  0
ENDSEC
  0
SECTION
  2
OBJECTS
  0
DICTIONARY
  5
C
100
AcDbDictionary
280
0
281
1
  3
ACAD_GROUP
350
D
  3
ACAD_LAYOUT
350
1A
  3
ACAD_MLINESTYLE
350
17
  3
ACAD_PLOTSETTINGS
350
19
  3
ACAD_PLOTSTYLENAME
350
E
  3
AcDbVariableDictionary
350
DD
  0
DICTIONARY
  5
D
100
AcDbDictionary
280
0
281
1
  0
ACDBDICTIONARYWDFLT
  5
E
100
AcDbDictionary
281
1
  3
Normal
350
F
100
AcDbDictionaryWithDefault
340
F
  0
ACDBPLACEHOLDER
  5
F
  0
DICTIONARY
  5
17
100
AcDbDictionary
280
0
281
1
  3
Standard
350
18
  0
MLINESTYLE
  5
18
100
AcDbMlineStyle
  2
STANDARD
 70
0
  3

 62
256
 51
90.0
 52
90.0
 71
2
 49
0.5
 62
256
  6
BYLAYER
 49
-0.5
 62
256
  6
BYLAYER
  0
DICTIONARY
  5
19
100
AcDbDictionary
280
0
281
1
  0
DICTIONARY
  5
1A
100
AcDbDictionary
281
1
  3
Layout1
350
1E
  3
Layout2
350
26
  3
Model
350
22
  0
LAYOUT
  5
1E
100
AcDbPlotSettings
  1

  2
C:\Program Files\AutoCAD 2002\plotters\DWF ePlot (optimized for plotting).pc3
  4

  6

 40
0.0
 41
0.0
 42
0.0
 43
0.0
 44
0.0
 45
0.0
 46
0.0
 47
0.0
 48
0.0
 49
0.0
140
0.0
141
0.0
142
1.0
143
1.0
 70
688
 72
0
 73
0
 74
5
  7

 75
16
147
1.0
148
0.0
149
0.0
100
AcDbLayout
  1
Layout1
 70
1
 71
1
 10
0.0
 20
0.0
 11
420.0
 21
297.0
 12
0.0
 22
0.0
 32
0.0
 14
100000000000000000000.0
 24
100000000000000000000.0
 34
100000000000000000000.0
 15
-100000000000000000000.0
 25
-100000000000000000000.0
 35
-100000000000000000000.0
146
0.0
 13
0.0
 23
0.0
 33
0.0
 16
1.0
 26
0.0
 36
0.0
 17
0.0
 27
1.0
 37
0.0
 76
0
330
1B
  0
LAYOUT
  5
22
100
AcDbPlotSettings
  1

  2
C:\Program Files\AutoCAD 2002\plotters\DWF ePlot (optimized for plotting).pc3
  4

  6

 40
0.0
 41
0.0
 42
0.0
 43
0.0
 44
0.0
 45
0.0
 46
0.0
 47
0.0
 48
0.0
 49
0.0
140
0.0
141
0.0
142
1.0
143
1.0
 70
1712
 72
0
 73
0
 74
0
  7

 75
0
147
1.0
148
0.0
149
0.0
100
AcDbLayout
  1
Model
 70
1
 71
0
 10
0.0
 20
0.0
 11
12.0
 21
9.0
 12
0.0
 22
0.0
 32
0.0
 14
0.0
 24
0.0
 34
0.0
 15
0.0
 25
0.0
 35
0.0
146
0.0
 13
0.0
 23
0.0
 33
0.0
 16
1.0
 26
0.0
 36
0.0
 17
0.0
 27
1.0
 37
0.0
 76
0
330
1F
  0
LAYOUT
  5
26
100
AcDbPlotSettings
  1

  2
C:\Program Files\AutoCAD 2002\plotters\DWF ePlot (optimized for plotting).pc3
  4

  6

 40
0.0
 41
0.0
 42
0.0
 43
0.0
 44
0.0
 45
0.0
 46
0.0
 47
0.0
 48
0.0
 49
0.0
140
0.0
141
0.0
142
1.0
143
1.0
 70
688
 72
0
 73
0
 74
5
  7

 75
16
147
1.0
148
0.0
149
0.0
100
AcDbLayout
  1
Layout2
 70
1
 71
2
 10
0.0
 20
0.0
 11
12.0
 21
9.0
 12
0.0
 22
0.0
 32
0.0
 14
0.0
 24
0.0
 34
0.0
 15
0.0
 25
0.0
 35
0.0
146
0.0
 13
0.0
 23
0.0
 33
0.0
 16
1.0
 26
0.0
 36
0.0
 17
0.0
 27
1.0
 37
0.0
 76
0
330
23
  0
DICTIONARY
  5
DD
100
AcDbDictionary
281
1
  3
DIMASSOC
350
DF
  3
HIDETEXT
350
DE
  0
DICTIONARYVAR
  5
DE
100
DictionaryVariables
280
0
  1
2
  0
DICTIONARYVAR
  5
DF
100
DictionaryVariables
280
0
  1
1
  0
ENDSEC
  0
EOF
